M48
; DRILL file {KiCad (6.0.1)} date Wed Feb 23 08:47:07 2022
; FORMAT={-:-/ absolute / inch / decimal}
; #@! TF.CreationDate,2022-02-23T08:47:07+13:00
; #@! TF.GenerationSoftware,Kicad,Pcbnew,(6.0.1)
; #@! TF.FileFunction,Plated,1,2,PTH
FMAT,2
INCH
; #@! TA.AperFunction,Plated,PTH,ViaDrill
T1C0.0157
; #@! TA.AperFunction,Plated,PTH,ComponentDrill
T2C0.0236
; #@! TA.AperFunction,Plated,PTH,ComponentDrill
T3C0.0394
%
G90
G05
T1
X2.0Y-3.05
X2.1Y-3.25
X7.2Y-4.0
X7.3Y-3.9
X7.5Y-3.85
T3
X1.95Y-1.35
X1.95Y-2.25
X1.95Y-2.7
X1.9504Y-1.8
X1.9504Y-3.15
X1.9504Y-3.6
X2.05Y-1.35
X2.05Y-2.25
X2.05Y-2.7
X2.0504Y-1.8
X2.0504Y-3.15
X2.0504Y-3.6
X2.15Y-1.35
X2.15Y-2.25
X2.15Y-2.7
X2.1504Y-1.8
X2.1504Y-3.15
X2.1504Y-3.6
X2.25Y-1.35
X2.25Y-2.25
X2.25Y-2.7
X2.2504Y-1.8
X2.2504Y-3.15
X2.2504Y-3.6
X2.7Y-1.3004
X2.7Y-1.4004
X2.7Y-1.5004
X2.7Y-1.6004
X2.7Y-3.1
X2.7Y-3.2
X2.7Y-3.3
X2.7Y-3.4
X2.8Y-1.6
X2.8Y-1.7
X2.8Y-1.8
X2.8Y-1.9
X2.8Y-2.0
X2.8Y-2.2
X2.8Y-2.5
X2.8Y-2.6
X2.8Y-2.7
X2.8Y-2.8
X2.8Y-2.9
X2.8Y-3.2
X2.8Y-3.4
X2.8Y-3.5
X2.8Y-3.6
X2.8Y-3.7
X2.8Y-3.8
X2.8Y-4.0
X2.8Y-4.1
X2.8002Y-1.3
X2.8002Y-1.4
X2.8002Y-2.3
X2.8002Y-3.1
X2.9Y-1.6
X2.9Y-1.7
X2.9Y-1.8
X2.9Y-1.9
X2.9Y-2.0
X2.9Y-2.2
X2.9Y-2.5
X2.9Y-2.6
X2.9Y-2.7
X2.9Y-2.8
X2.9Y-2.9
X2.9Y-3.2
X2.9Y-3.4
X2.9Y-3.5
X2.9Y-3.6
X2.9Y-3.7
X2.9Y-3.8
X2.9Y-4.0
X2.9Y-4.1
X2.9002Y-1.3
X2.9002Y-1.4
X2.9002Y-2.3
X2.9002Y-3.1
X3.0Y-1.6
X3.0Y-1.7
X3.0Y-1.8
X3.0Y-1.9
X3.0Y-2.0
X3.0Y-2.2
X3.0Y-2.5
X3.0Y-2.6
X3.0Y-2.7
X3.0Y-2.8
X3.0Y-2.9
X3.0Y-3.2
X3.0Y-3.4
X3.0Y-3.5
X3.0Y-3.6
X3.0Y-3.7
X3.0Y-3.8
X3.0Y-4.0
X3.0Y-4.1
X3.0002Y-1.3
X3.0002Y-1.4
X3.0002Y-2.3
X3.0002Y-3.1
X3.1Y-1.6
X3.1Y-1.7
X3.1Y-1.8
X3.1Y-1.9
X3.1Y-2.0
X3.1Y-2.2
X3.1Y-2.5
X3.1Y-2.6
X3.1Y-2.7
X3.1Y-2.8
X3.1Y-2.9
X3.1Y-3.2
X3.1Y-3.4
X3.1Y-3.5
X3.1Y-3.6
X3.1Y-3.7
X3.1Y-3.8
X3.1Y-4.0
X3.1Y-4.1
X3.1002Y-1.3
X3.1002Y-1.4
X3.1002Y-2.3
X3.1002Y-3.1
X3.2Y-1.6
X3.2Y-1.7
X3.2Y-1.8
X3.2Y-1.9
X3.2Y-2.0
X3.2Y-2.2
X3.2Y-2.5
X3.2Y-2.6
X3.2Y-2.7
X3.2Y-2.8
X3.2Y-2.9
X3.2Y-3.2
X3.2Y-3.4
X3.2Y-3.5
X3.2Y-3.6
X3.2Y-3.7
X3.2Y-3.8
X3.2Y-4.0
X3.2Y-4.1
X3.2002Y-1.3
X3.2002Y-1.4
X3.2002Y-2.3
X3.2002Y-3.1
X3.3Y-1.6
X3.3Y-1.7
X3.3Y-1.8
X3.3Y-1.9
X3.3Y-2.0
X3.3Y-2.2
X3.3Y-2.5
X3.3Y-2.6
X3.3Y-2.7
X3.3Y-2.8
X3.3Y-2.9
X3.3Y-3.2
X3.3Y-3.4
X3.3Y-3.5
X3.3Y-3.6
X3.3Y-3.7
X3.3Y-3.8
X3.3Y-4.0
X3.3Y-4.1
X3.3002Y-1.3
X3.3002Y-1.4
X3.3002Y-2.3
X3.3002Y-3.1
X3.4Y-1.6
X3.4Y-1.7
X3.4Y-1.8
X3.4Y-1.9
X3.4Y-2.0
X3.4Y-2.2
X3.4Y-2.5
X3.4Y-2.6
X3.4Y-2.7
X3.4Y-2.8
X3.4Y-2.9
X3.4Y-3.2
X3.4Y-3.4
X3.4Y-3.5
X3.4Y-3.6
X3.4Y-3.7
X3.4Y-3.8
X3.4Y-4.0
X3.4Y-4.1
X3.4002Y-1.3
X3.4002Y-1.4
X3.4002Y-2.3
X3.4002Y-3.1
X3.5Y-1.6
X3.5Y-1.7
X3.5Y-1.8
X3.5Y-1.9
X3.5Y-2.0
X3.5Y-2.2
X3.5Y-2.5
X3.5Y-2.6
X3.5Y-2.7
X3.5Y-2.8
X3.5Y-2.9
X3.5Y-3.2
X3.5Y-3.4
X3.5Y-3.5
X3.5Y-3.6
X3.5Y-3.7
X3.5Y-3.8
X3.5Y-4.0
X3.5Y-4.1
X3.5002Y-1.3
X3.5002Y-1.4
X3.5002Y-2.3
X3.5002Y-3.1
X3.6Y-1.6
X3.6Y-1.7
X3.6Y-1.8
X3.6Y-1.9
X3.6Y-2.0
X3.6Y-2.2
X3.6Y-2.5
X3.6Y-2.6
X3.6Y-2.7
X3.6Y-2.8
X3.6Y-2.9
X3.6Y-3.2
X3.6Y-3.4
X3.6Y-3.5
X3.6Y-3.6
X3.6Y-3.7
X3.6Y-3.8
X3.6Y-4.0
X3.6Y-4.1
X3.6002Y-1.3
X3.6002Y-1.4
X3.6002Y-2.3
X3.6002Y-3.1
X3.7Y-1.6
X3.7Y-1.7
X3.7Y-1.8
X3.7Y-1.9
X3.7Y-2.0
X3.7Y-2.2
X3.7Y-2.5
X3.7Y-2.6
X3.7Y-2.7
X3.7Y-2.8
X3.7Y-2.9
X3.7Y-3.2
X3.7Y-3.4
X3.7Y-3.5
X3.7Y-3.6
X3.7Y-3.7
X3.7Y-3.8
X3.7Y-4.0
X3.7Y-4.1
X3.7002Y-1.3
X3.7002Y-1.4
X3.7002Y-2.3
X3.7002Y-3.1
X3.8Y-1.6
X3.8Y-1.7
X3.8Y-1.8
X3.8Y-1.9
X3.8Y-2.0
X3.8Y-2.2
X3.8Y-2.5
X3.8Y-2.6
X3.8Y-2.7
X3.8Y-2.8
X3.8Y-2.9
X3.8Y-3.2
X3.8Y-3.4
X3.8Y-3.5
X3.8Y-3.6
X3.8Y-3.7
X3.8Y-3.8
X3.8Y-4.0
X3.8Y-4.1
X3.8002Y-1.3
X3.8002Y-1.4
X3.8002Y-2.3
X3.8002Y-3.1
X3.9Y-1.6
X3.9Y-1.7
X3.9Y-1.8
X3.9Y-1.9
X3.9Y-2.0
X3.9Y-2.2
X3.9Y-2.5
X3.9Y-2.6
X3.9Y-2.7
X3.9Y-2.8
X3.9Y-2.9
X3.9Y-3.2
X3.9Y-3.4
X3.9Y-3.5
X3.9Y-3.6
X3.9Y-3.7
X3.9Y-3.8
X3.9Y-4.0
X3.9Y-4.1
X3.9002Y-1.3
X3.9002Y-1.4
X3.9002Y-2.3
X3.9002Y-3.1
X4.0Y-1.6
X4.0Y-1.7
X4.0Y-1.8
X4.0Y-1.9
X4.0Y-2.0
X4.0Y-2.2
X4.0Y-2.5
X4.0Y-2.6
X4.0Y-2.7
X4.0Y-2.8
X4.0Y-2.9
X4.0Y-3.2
X4.0Y-3.4
X4.0Y-3.5
X4.0Y-3.6
X4.0Y-3.7
X4.0Y-3.8
X4.0Y-4.0
X4.0Y-4.1
X4.0002Y-1.3
X4.0002Y-1.4
X4.0002Y-2.3
X4.0002Y-3.1
X4.1Y-1.6
X4.1Y-1.7
X4.1Y-1.8
X4.1Y-1.9
X4.1Y-2.0
X4.1Y-2.2
X4.1Y-2.5
X4.1Y-2.6
X4.1Y-2.7
X4.1Y-2.8
X4.1Y-2.9
X4.1Y-3.2
X4.1Y-3.4
X4.1Y-3.5
X4.1Y-3.6
X4.1Y-3.7
X4.1Y-3.8
X4.1Y-4.0
X4.1Y-4.1
X4.1002Y-1.3
X4.1002Y-1.4
X4.1002Y-2.3
X4.1002Y-3.1
X4.2Y-1.6
X4.2Y-1.7
X4.2Y-1.8
X4.2Y-1.9
X4.2Y-2.0
X4.2Y-2.2
X4.2Y-2.5
X4.2Y-2.6
X4.2Y-2.7
X4.2Y-2.8
X4.2Y-2.9
X4.2Y-3.2
X4.2Y-3.4
X4.2Y-3.5
X4.2Y-3.6
X4.2Y-3.7
X4.2Y-3.8
X4.2Y-4.0
X4.2Y-4.1
X4.2002Y-1.3
X4.2002Y-1.4
X4.2002Y-2.3
X4.2002Y-3.1
X4.3Y-1.6
X4.3Y-1.7
X4.3Y-1.8
X4.3Y-1.9
X4.3Y-2.0
X4.3Y-2.2
X4.3Y-2.5
X4.3Y-2.6
X4.3Y-2.7
X4.3Y-2.8
X4.3Y-2.9
X4.3Y-3.2
X4.3Y-3.4
X4.3Y-3.5
X4.3Y-3.6
X4.3Y-3.7
X4.3Y-3.8
X4.3Y-4.0
X4.3Y-4.1
X4.3002Y-1.3
X4.3002Y-1.4
X4.3002Y-2.3
X4.3002Y-3.1
X4.4Y-1.6
X4.4Y-1.7
X4.4Y-1.8
X4.4Y-1.9
X4.4Y-2.0
X4.4Y-2.2
X4.4Y-2.5
X4.4Y-2.6
X4.4Y-2.7
X4.4Y-2.8
X4.4Y-2.9
X4.4Y-3.2
X4.4Y-3.4
X4.4Y-3.5
X4.4Y-3.6
X4.4Y-3.7
X4.4Y-3.8
X4.4Y-4.0
X4.4Y-4.1
X4.4002Y-1.3
X4.4002Y-1.4
X4.4002Y-2.3
X4.4002Y-3.1
X4.5Y-1.6
X4.5Y-1.7
X4.5Y-1.8
X4.5Y-1.9
X4.5Y-2.0
X4.5Y-2.2
X4.5Y-2.5
X4.5Y-2.6
X4.5Y-2.7
X4.5Y-2.8
X4.5Y-2.9
X4.5Y-3.2
X4.5Y-3.4
X4.5Y-3.5
X4.5Y-3.6
X4.5Y-3.7
X4.5Y-3.8
X4.5Y-4.0
X4.5Y-4.1
X4.5002Y-1.3
X4.5002Y-1.4
X4.5002Y-2.3
X4.5002Y-3.1
X4.6Y-1.6
X4.6Y-1.7
X4.6Y-1.8
X4.6Y-1.9
X4.6Y-2.0
X4.6Y-2.2
X4.6Y-2.5
X4.6Y-2.6
X4.6Y-2.7
X4.6Y-2.8
X4.6Y-2.9
X4.6Y-3.2
X4.6Y-3.4
X4.6Y-3.5
X4.6Y-3.6
X4.6Y-3.7
X4.6Y-3.8
X4.6Y-4.0
X4.6Y-4.1
X4.6002Y-1.3
X4.6002Y-1.4
X4.6002Y-2.3
X4.6002Y-3.1
X4.7Y-1.6
X4.7Y-1.7
X4.7Y-1.8
X4.7Y-1.9
X4.7Y-2.0
X4.7Y-2.2
X4.7Y-2.5
X4.7Y-2.6
X4.7Y-2.7
X4.7Y-2.8
X4.7Y-2.9
X4.7Y-3.2
X4.7Y-3.4
X4.7Y-3.5
X4.7Y-3.6
X4.7Y-3.7
X4.7Y-3.8
X4.7Y-4.0
X4.7Y-4.1
X4.7002Y-1.3
X4.7002Y-1.4
X4.7002Y-2.3
X4.7002Y-3.1
X4.8Y-1.6
X4.8Y-1.7
X4.8Y-1.8
X4.8Y-1.9
X4.8Y-2.0
X4.8Y-2.2
X4.8Y-2.5
X4.8Y-2.6
X4.8Y-2.7
X4.8Y-2.8
X4.8Y-2.9
X4.8Y-3.2
X4.8Y-3.4
X4.8Y-3.5
X4.8Y-3.6
X4.8Y-3.7
X4.8Y-3.8
X4.8Y-4.0
X4.8Y-4.1
X4.8002Y-1.3
X4.8002Y-1.4
X4.8002Y-2.3
X4.8002Y-3.1
X4.9Y-1.6
X4.9Y-1.7
X4.9Y-1.8
X4.9Y-1.9
X4.9Y-2.0
X4.9Y-2.2
X4.9Y-2.5
X4.9Y-2.6
X4.9Y-2.7
X4.9Y-2.8
X4.9Y-2.9
X4.9Y-3.2
X4.9Y-3.4
X4.9Y-3.5
X4.9Y-3.6
X4.9Y-3.7
X4.9Y-3.8
X4.9Y-4.0
X4.9Y-4.1
X4.9002Y-1.3
X4.9002Y-1.4
X4.9002Y-2.3
X4.9002Y-3.1
X5.0Y-1.6
X5.0Y-1.7
X5.0Y-1.8
X5.0Y-1.9
X5.0Y-2.0
X5.0Y-2.2
X5.0Y-2.5
X5.0Y-2.6
X5.0Y-2.7
X5.0Y-2.8
X5.0Y-2.9
X5.0Y-3.2
X5.0Y-3.4
X5.0Y-3.5
X5.0Y-3.6
X5.0Y-3.7
X5.0Y-3.8
X5.0Y-4.0
X5.0Y-4.1
X5.0002Y-1.3
X5.0002Y-1.4
X5.0002Y-2.3
X5.0002Y-3.1
X5.1Y-1.6
X5.1Y-1.7
X5.1Y-1.8
X5.1Y-1.9
X5.1Y-2.0
X5.1Y-2.2
X5.1Y-2.5
X5.1Y-2.6
X5.1Y-2.7
X5.1Y-2.8
X5.1Y-2.9
X5.1Y-3.2
X5.1Y-3.4
X5.1Y-3.5
X5.1Y-3.6
X5.1Y-3.7
X5.1Y-3.8
X5.1Y-4.0
X5.1Y-4.1
X5.1002Y-1.3
X5.1002Y-1.4
X5.1002Y-2.3
X5.1002Y-3.1
X5.2Y-1.6
X5.2Y-1.7
X5.2Y-1.8
X5.2Y-1.9
X5.2Y-2.0
X5.2Y-2.2
X5.2Y-2.5
X5.2Y-2.6
X5.2Y-2.7
X5.2Y-2.8
X5.2Y-2.9
X5.2Y-3.2
X5.2Y-3.4
X5.2Y-3.5
X5.2Y-3.6
X5.2Y-3.7
X5.2Y-3.8
X5.2Y-4.0
X5.2Y-4.1
X5.2002Y-1.3
X5.2002Y-1.4
X5.2002Y-2.3
X5.2002Y-3.1
X5.3Y-1.6
X5.3Y-1.7
X5.3Y-1.8
X5.3Y-1.9
X5.3Y-2.0
X5.3Y-2.2
X5.3Y-2.5
X5.3Y-2.6
X5.3Y-2.7
X5.3Y-2.8
X5.3Y-2.9
X5.3Y-3.2
X5.3Y-3.4
X5.3Y-3.5
X5.3Y-3.6
X5.3Y-3.7
X5.3Y-3.8
X5.3Y-4.0
X5.3Y-4.1
X5.3002Y-1.3
X5.3002Y-1.4
X5.3002Y-2.3
X5.3002Y-3.1
X5.4Y-1.6
X5.4Y-1.7
X5.4Y-1.8
X5.4Y-1.9
X5.4Y-2.0
X5.4Y-2.2
X5.4Y-2.5
X5.4Y-2.6
X5.4Y-2.7
X5.4Y-2.8
X5.4Y-2.9
X5.4Y-3.2
X5.4Y-3.4
X5.4Y-3.5
X5.4Y-3.6
X5.4Y-3.7
X5.4Y-3.8
X5.4Y-4.0
X5.4Y-4.1
X5.4002Y-1.3
X5.4002Y-1.4
X5.4002Y-2.3
X5.4002Y-3.1
X5.5Y-1.6
X5.5Y-1.7
X5.5Y-1.8
X5.5Y-1.9
X5.5Y-2.0
X5.5Y-2.2
X5.5Y-2.5
X5.5Y-2.6
X5.5Y-2.7
X5.5Y-2.8
X5.5Y-2.9
X5.5Y-3.2
X5.5Y-3.4
X5.5Y-3.5
X5.5Y-3.6
X5.5Y-3.7
X5.5Y-3.8
X5.5Y-4.0
X5.5Y-4.1
X5.5002Y-1.3
X5.5002Y-1.4
X5.5002Y-2.3
X5.5002Y-3.1
X5.6Y-1.6
X5.6Y-1.7
X5.6Y-1.8
X5.6Y-1.9
X5.6Y-2.0
X5.6Y-2.2
X5.6Y-2.5
X5.6Y-2.6
X5.6Y-2.7
X5.6Y-2.8
X5.6Y-2.9
X5.6Y-3.2
X5.6Y-3.4
X5.6Y-3.5
X5.6Y-3.6
X5.6Y-3.7
X5.6Y-3.8
X5.6Y-4.0
X5.6Y-4.1
X5.6002Y-1.3
X5.6002Y-1.4
X5.6002Y-2.3
X5.6002Y-3.1
X5.7Y-1.6
X5.7Y-1.7
X5.7Y-1.8
X5.7Y-1.9
X5.7Y-2.0
X5.7Y-2.2
X5.7Y-2.5
X5.7Y-2.6
X5.7Y-2.7
X5.7Y-2.8
X5.7Y-2.9
X5.7Y-3.2
X5.7Y-3.4
X5.7Y-3.5
X5.7Y-3.6
X5.7Y-3.7
X5.7Y-3.8
X5.7Y-4.0
X5.7Y-4.1
X5.7002Y-1.3
X5.7002Y-1.4
X5.7002Y-2.3
X5.7002Y-3.1
X5.8Y-1.6
X5.8Y-1.7
X5.8Y-1.8
X5.8Y-1.9
X5.8Y-2.0
X5.8Y-2.2
X5.8Y-2.5
X5.8Y-2.6
X5.8Y-2.7
X5.8Y-2.8
X5.8Y-2.9
X5.8Y-3.2
X5.8Y-3.4
X5.8Y-3.5
X5.8Y-3.6
X5.8Y-3.7
X5.8Y-3.8
X5.8Y-4.0
X5.8Y-4.1
X5.8002Y-1.3
X5.8002Y-1.4
X5.8002Y-2.3
X5.8002Y-3.1
X5.9Y-1.6
X5.9Y-1.7
X5.9Y-1.8
X5.9Y-1.9
X5.9Y-2.0
X5.9Y-2.2
X5.9Y-2.5
X5.9Y-2.6
X5.9Y-2.7
X5.9Y-2.8
X5.9Y-2.9
X5.9Y-3.2
X5.9Y-3.4
X5.9Y-3.5
X5.9Y-3.6
X5.9Y-3.7
X5.9Y-3.8
X5.9Y-4.0
X5.9Y-4.1
X5.9002Y-1.3
X5.9002Y-1.4
X5.9002Y-2.3
X5.9002Y-3.1
X6.0Y-1.6
X6.0Y-1.7
X6.0Y-1.8
X6.0Y-1.9
X6.0Y-2.0
X6.0Y-2.2
X6.0Y-2.5
X6.0Y-2.6
X6.0Y-2.7
X6.0Y-2.8
X6.0Y-2.9
X6.0Y-3.2
X6.0Y-3.4
X6.0Y-3.5
X6.0Y-3.6
X6.0Y-3.7
X6.0Y-3.8
X6.0Y-4.0
X6.0Y-4.1
X6.0002Y-1.3
X6.0002Y-1.4
X6.0002Y-2.3
X6.0002Y-3.1
X6.1Y-1.6
X6.1Y-1.7
X6.1Y-1.8
X6.1Y-1.9
X6.1Y-2.0
X6.1Y-2.2
X6.1Y-2.5
X6.1Y-2.6
X6.1Y-2.7
X6.1Y-2.8
X6.1Y-2.9
X6.1Y-3.2
X6.1Y-3.4
X6.1Y-3.5
X6.1Y-3.6
X6.1Y-3.7
X6.1Y-3.8
X6.1Y-4.0
X6.1Y-4.1
X6.1002Y-1.3
X6.1002Y-1.4
X6.1002Y-2.3
X6.1002Y-3.1
X6.2Y-1.6
X6.2Y-1.7
X6.2Y-1.8
X6.2Y-1.9
X6.2Y-2.0
X6.2Y-2.2
X6.2Y-2.5
X6.2Y-2.6
X6.2Y-2.7
X6.2Y-2.8
X6.2Y-2.9
X6.2Y-3.2
X6.2Y-3.4
X6.2Y-3.5
X6.2Y-3.6
X6.2Y-3.7
X6.2Y-3.8
X6.2Y-4.0
X6.2Y-4.1
X6.2002Y-1.3
X6.2002Y-1.4
X6.2002Y-2.3
X6.2002Y-3.1
X6.3Y-1.6
X6.3Y-1.7
X6.3Y-1.8
X6.3Y-1.9
X6.3Y-2.0
X6.3Y-2.2
X6.3Y-2.5
X6.3Y-2.6
X6.3Y-2.7
X6.3Y-2.8
X6.3Y-2.9
X6.3Y-3.2
X6.3Y-3.4
X6.3Y-3.5
X6.3Y-3.6
X6.3Y-3.7
X6.3Y-3.8
X6.3Y-4.0
X6.3Y-4.1
X6.3002Y-1.3
X6.3002Y-1.4
X6.3002Y-2.3
X6.3002Y-3.1
X6.4Y-1.6
X6.4Y-1.7
X6.4Y-1.8
X6.4Y-1.9
X6.4Y-2.0
X6.4Y-2.2
X6.4Y-2.5
X6.4Y-2.6
X6.4Y-2.7
X6.4Y-2.8
X6.4Y-2.9
X6.4Y-3.2
X6.4Y-3.4
X6.4Y-3.5
X6.4Y-3.6
X6.4Y-3.7
X6.4Y-3.8
X6.4Y-4.0
X6.4Y-4.1
X6.4002Y-1.3
X6.4002Y-1.4
X6.4002Y-2.3
X6.4002Y-3.1
X6.5Y-1.6
X6.5Y-1.7
X6.5Y-1.8
X6.5Y-1.9
X6.5Y-2.0
X6.5Y-2.2
X6.5Y-2.5
X6.5Y-2.6
X6.5Y-2.7
X6.5Y-2.8
X6.5Y-2.9
X6.5Y-3.2
X6.5Y-3.4
X6.5Y-3.5
X6.5Y-3.6
X6.5Y-3.7
X6.5Y-3.8
X6.5Y-4.0
X6.5Y-4.1
X6.5002Y-1.3
X6.5002Y-1.4
X6.5002Y-2.3
X6.5002Y-3.1
X6.6Y-1.6
X6.6Y-1.7
X6.6Y-1.8
X6.6Y-1.9
X6.6Y-2.0
X6.6Y-2.2
X6.6Y-2.5
X6.6Y-2.6
X6.6Y-2.7
X6.6Y-2.8
X6.6Y-2.9
X6.6Y-3.2
X6.6Y-3.4
X6.6Y-3.5
X6.6Y-3.6
X6.6Y-3.7
X6.6Y-3.8
X6.6Y-4.0
X6.6Y-4.1
X6.6002Y-1.3
X6.6002Y-1.4
X6.6002Y-2.3
X6.6002Y-3.1
X6.7Y-1.6
X6.7Y-1.7
X6.7Y-1.8
X6.7Y-1.9
X6.7Y-2.0
X6.7Y-2.2
X6.7Y-2.5
X6.7Y-2.6
X6.7Y-2.7
X6.7Y-2.8
X6.7Y-2.9
X6.7Y-3.2
X6.7Y-3.4
X6.7Y-3.5
X6.7Y-3.6
X6.7Y-3.7
X6.7Y-3.8
X6.7Y-4.0
X6.7Y-4.1
X6.7002Y-1.3
X6.7002Y-1.4
X6.7002Y-2.3
X6.7002Y-3.1
X6.8Y-2.2004
X6.8Y-2.3004
X6.8Y-2.4004
X6.8Y-2.5004
X6.8Y-4.0
X6.8Y-4.1
X7.2Y-1.35
X7.2Y-1.8
X7.2Y-2.25
X7.2Y-2.7
X7.2Y-3.15
X7.2Y-3.6
X7.3Y-1.35
X7.3Y-1.8
X7.3Y-2.25
X7.3Y-2.7
X7.3Y-3.15
X7.3Y-3.6
X7.4Y-1.35
X7.4Y-1.8
X7.4Y-2.25
X7.4Y-2.7
X7.4Y-3.15
X7.4Y-3.6
X7.4Y-3.8
X7.5Y-1.35
X7.5Y-1.55
X7.5Y-1.8
X7.5Y-2.0
X7.5Y-2.25
X7.5Y-2.4
X7.5Y-2.7
X7.5Y-2.9
X7.5Y-3.15
X7.5Y-3.35
X7.5Y-3.6
X7.6Y-1.35
X7.6Y-1.8
X7.6Y-2.25
X7.6Y-2.7
X7.6Y-3.15
X7.6Y-3.6
X7.7Y-1.35
X7.7Y-1.8
X7.7Y-2.25
X7.7Y-2.7
X7.7Y-3.15
X7.7Y-3.6
T2
G00X7.6551Y-3.8299
M15
G01X7.6984Y-3.8299
M16
G05
G00X7.6551Y-4.1701
M15
G01X7.6984Y-4.1701
M16
G05
G00X7.8295Y-3.8299
M15
G01X7.8531Y-3.8299
M16
G05
G00X7.8295Y-4.1701
M15
G01X7.8531Y-4.1701
M16
G05
T0
M30
