%TF.GenerationSoftware,KiCad,Pcbnew,(6.0.1)*%
%TF.CreationDate,2022-02-22T20:50:15+13:00*%
%TF.ProjectId,perma-proto-board,7065726d-612d-4707-926f-746f2d626f61,rev?*%
%TF.SameCoordinates,Original*%
%TF.FileFunction,Soldermask,Bot*%
%TF.FilePolarity,Negative*%
%FSLAX46Y46*%
G04 Gerber Fmt 4.6, Leading zero omitted, Abs format (unit mm)*
G04 Created by KiCad (PCBNEW (6.0.1)) date 2022-02-22 20:50:15*
%MOMM*%
%LPD*%
G01*
G04 APERTURE LIST*
%ADD10R,1.700000X1.700000*%
%ADD11O,1.700000X1.700000*%
%ADD12C,3.500000*%
%ADD13C,0.650000*%
%ADD14O,2.100000X1.000000*%
%ADD15O,1.600000X1.000000*%
G04 APERTURE END LIST*
D10*
%TO.C,J27*%
X71120000Y-96520000D03*
D11*
X73660000Y-96520000D03*
X76200000Y-96520000D03*
X78740000Y-96520000D03*
X81280000Y-96520000D03*
X83820000Y-96520000D03*
X86360000Y-96520000D03*
X88900000Y-96520000D03*
X91440000Y-96520000D03*
X93980000Y-96520000D03*
X96520000Y-96520000D03*
X99060000Y-96520000D03*
X101600000Y-96520000D03*
X104140000Y-96520000D03*
X106680000Y-96520000D03*
X109220000Y-96520000D03*
X111760000Y-96520000D03*
X114300000Y-96520000D03*
X116840000Y-96520000D03*
X119380000Y-96520000D03*
X121920000Y-96520000D03*
X124460000Y-96520000D03*
X127000000Y-96520000D03*
X129540000Y-96520000D03*
X132080000Y-96520000D03*
X134620000Y-96520000D03*
X137160000Y-96520000D03*
X139700000Y-96520000D03*
X142240000Y-96520000D03*
X144780000Y-96520000D03*
X147320000Y-96520000D03*
X149860000Y-96520000D03*
X152400000Y-96520000D03*
X154940000Y-96520000D03*
X157480000Y-96520000D03*
X160020000Y-96520000D03*
X162560000Y-96520000D03*
X165100000Y-96520000D03*
X167640000Y-96520000D03*
X170180000Y-96520000D03*
%TD*%
D10*
%TO.C,J2*%
X182880000Y-45720000D03*
D11*
X185420000Y-45720000D03*
X187960000Y-45720000D03*
X190500000Y-45720000D03*
X193040000Y-45720000D03*
X195580000Y-45720000D03*
%TD*%
D10*
%TO.C,J33*%
X71125000Y-35560000D03*
D11*
X73665000Y-35560000D03*
X76205000Y-35560000D03*
X78745000Y-35560000D03*
X81285000Y-35560000D03*
X83825000Y-35560000D03*
X86365000Y-35560000D03*
X88905000Y-35560000D03*
X91445000Y-35560000D03*
X93985000Y-35560000D03*
X96525000Y-35560000D03*
X99065000Y-35560000D03*
X101605000Y-35560000D03*
X104145000Y-35560000D03*
X106685000Y-35560000D03*
X109225000Y-35560000D03*
X111765000Y-35560000D03*
X114305000Y-35560000D03*
X116845000Y-35560000D03*
X119385000Y-35560000D03*
X121925000Y-35560000D03*
X124465000Y-35560000D03*
X127005000Y-35560000D03*
X129545000Y-35560000D03*
X132085000Y-35560000D03*
X134625000Y-35560000D03*
X137165000Y-35560000D03*
X139705000Y-35560000D03*
X142245000Y-35560000D03*
X144785000Y-35560000D03*
X147325000Y-35560000D03*
X149865000Y-35560000D03*
X152405000Y-35560000D03*
X154945000Y-35560000D03*
X157485000Y-35560000D03*
X160025000Y-35560000D03*
X162565000Y-35560000D03*
X165105000Y-35560000D03*
X167645000Y-35560000D03*
X170185000Y-35560000D03*
%TD*%
D12*
%TO.C,REF\u002A\u002A*%
X63500000Y-45720000D03*
%TD*%
D10*
%TO.C,J7*%
X49530000Y-34290000D03*
D11*
X52070000Y-34290000D03*
X54610000Y-34290000D03*
X57150000Y-34290000D03*
%TD*%
D10*
%TO.C,J23*%
X71120000Y-86360000D03*
D11*
X73660000Y-86360000D03*
X76200000Y-86360000D03*
X78740000Y-86360000D03*
X81280000Y-86360000D03*
X83820000Y-86360000D03*
X86360000Y-86360000D03*
X88900000Y-86360000D03*
X91440000Y-86360000D03*
X93980000Y-86360000D03*
X96520000Y-86360000D03*
X99060000Y-86360000D03*
X101600000Y-86360000D03*
X104140000Y-86360000D03*
X106680000Y-86360000D03*
X109220000Y-86360000D03*
X111760000Y-86360000D03*
X114300000Y-86360000D03*
X116840000Y-86360000D03*
X119380000Y-86360000D03*
X121920000Y-86360000D03*
X124460000Y-86360000D03*
X127000000Y-86360000D03*
X129540000Y-86360000D03*
X132080000Y-86360000D03*
X134620000Y-86360000D03*
X137160000Y-86360000D03*
X139700000Y-86360000D03*
X142240000Y-86360000D03*
X144780000Y-86360000D03*
X147320000Y-86360000D03*
X149860000Y-86360000D03*
X152400000Y-86360000D03*
X154940000Y-86360000D03*
X157480000Y-86360000D03*
X160020000Y-86360000D03*
X162560000Y-86360000D03*
X165100000Y-86360000D03*
X167640000Y-86360000D03*
X170180000Y-86360000D03*
%TD*%
D10*
%TO.C,J15*%
X71120000Y-45720000D03*
D11*
X73660000Y-45720000D03*
X76200000Y-45720000D03*
X78740000Y-45720000D03*
X81280000Y-45720000D03*
X83820000Y-45720000D03*
X86360000Y-45720000D03*
X88900000Y-45720000D03*
X91440000Y-45720000D03*
X93980000Y-45720000D03*
X96520000Y-45720000D03*
X99060000Y-45720000D03*
X101600000Y-45720000D03*
X104140000Y-45720000D03*
X106680000Y-45720000D03*
X109220000Y-45720000D03*
X111760000Y-45720000D03*
X114300000Y-45720000D03*
X116840000Y-45720000D03*
X119380000Y-45720000D03*
X121920000Y-45720000D03*
X124460000Y-45720000D03*
X127000000Y-45720000D03*
X129540000Y-45720000D03*
X132080000Y-45720000D03*
X134620000Y-45720000D03*
X137160000Y-45720000D03*
X139700000Y-45720000D03*
X142240000Y-45720000D03*
X144780000Y-45720000D03*
X147320000Y-45720000D03*
X149860000Y-45720000D03*
X152400000Y-45720000D03*
X154940000Y-45720000D03*
X157480000Y-45720000D03*
X160020000Y-45720000D03*
X162560000Y-45720000D03*
X165100000Y-45720000D03*
X167640000Y-45720000D03*
X170180000Y-45720000D03*
%TD*%
D10*
%TO.C,+*%
X71120000Y-104140000D03*
D11*
X73660000Y-104140000D03*
X76200000Y-104140000D03*
X78740000Y-104140000D03*
X81280000Y-104140000D03*
X83820000Y-104140000D03*
X86360000Y-104140000D03*
X88900000Y-104140000D03*
X91440000Y-104140000D03*
X93980000Y-104140000D03*
X96520000Y-104140000D03*
X99060000Y-104140000D03*
X101600000Y-104140000D03*
X104140000Y-104140000D03*
X106680000Y-104140000D03*
X109220000Y-104140000D03*
X111760000Y-104140000D03*
X114300000Y-104140000D03*
X116840000Y-104140000D03*
X119380000Y-104140000D03*
X121920000Y-104140000D03*
X124460000Y-104140000D03*
X127000000Y-104140000D03*
X129540000Y-104140000D03*
X132080000Y-104140000D03*
X134620000Y-104140000D03*
X137160000Y-104140000D03*
X139700000Y-104140000D03*
X142240000Y-104140000D03*
X144780000Y-104140000D03*
X147320000Y-104140000D03*
X149860000Y-104140000D03*
X152400000Y-104140000D03*
X154940000Y-104140000D03*
X157480000Y-104140000D03*
X160020000Y-104140000D03*
X162560000Y-104140000D03*
X165100000Y-104140000D03*
X167640000Y-104140000D03*
X170180000Y-104140000D03*
%TD*%
D12*
%TO.C,REF\u002A\u002A*%
X176530000Y-45720000D03*
%TD*%
D10*
%TO.C,J25*%
X71120000Y-91440000D03*
D11*
X73660000Y-91440000D03*
X76200000Y-91440000D03*
X78740000Y-91440000D03*
X81280000Y-91440000D03*
X83820000Y-91440000D03*
X86360000Y-91440000D03*
X88900000Y-91440000D03*
X91440000Y-91440000D03*
X93980000Y-91440000D03*
X96520000Y-91440000D03*
X99060000Y-91440000D03*
X101600000Y-91440000D03*
X104140000Y-91440000D03*
X106680000Y-91440000D03*
X109220000Y-91440000D03*
X111760000Y-91440000D03*
X114300000Y-91440000D03*
X116840000Y-91440000D03*
X119380000Y-91440000D03*
X121920000Y-91440000D03*
X124460000Y-91440000D03*
X127000000Y-91440000D03*
X129540000Y-91440000D03*
X132080000Y-91440000D03*
X134620000Y-91440000D03*
X137160000Y-91440000D03*
X139700000Y-91440000D03*
X142240000Y-91440000D03*
X144780000Y-91440000D03*
X147320000Y-91440000D03*
X149860000Y-91440000D03*
X152400000Y-91440000D03*
X154940000Y-91440000D03*
X157480000Y-91440000D03*
X160020000Y-91440000D03*
X162560000Y-91440000D03*
X165100000Y-91440000D03*
X167640000Y-91440000D03*
X170180000Y-91440000D03*
%TD*%
D10*
%TO.C,J12*%
X49530000Y-68580000D03*
D11*
X52070000Y-68580000D03*
X54610000Y-68580000D03*
X57150000Y-68580000D03*
%TD*%
D13*
%TO.C,J40*%
X195520000Y-98710000D03*
X195520000Y-104490000D03*
D14*
X194990000Y-97280000D03*
X194990000Y-105920000D03*
D15*
X199170000Y-97280000D03*
X199170000Y-105920000D03*
%TD*%
D10*
%TO.C,J31*%
X172720000Y-101600000D03*
D11*
X172720000Y-104140000D03*
%TD*%
D10*
%TO.C,J37*%
X71120000Y-81280000D03*
D11*
X73660000Y-81280000D03*
X76200000Y-81280000D03*
X78740000Y-81280000D03*
X81280000Y-81280000D03*
X83820000Y-81280000D03*
X86360000Y-81280000D03*
X88900000Y-81280000D03*
X91440000Y-81280000D03*
X93980000Y-81280000D03*
X96520000Y-81280000D03*
X99060000Y-81280000D03*
X101600000Y-81280000D03*
X104140000Y-81280000D03*
X106680000Y-81280000D03*
X109220000Y-81280000D03*
X111760000Y-81280000D03*
X114300000Y-81280000D03*
X116840000Y-81280000D03*
X119380000Y-81280000D03*
X121920000Y-81280000D03*
X124460000Y-81280000D03*
X127000000Y-81280000D03*
X129540000Y-81280000D03*
X132080000Y-81280000D03*
X134620000Y-81280000D03*
X137160000Y-81280000D03*
X139700000Y-81280000D03*
X142240000Y-81280000D03*
X144780000Y-81280000D03*
X147320000Y-81280000D03*
X149860000Y-81280000D03*
X152400000Y-81280000D03*
X154940000Y-81280000D03*
X157480000Y-81280000D03*
X160020000Y-81280000D03*
X162560000Y-81280000D03*
X165100000Y-81280000D03*
X167640000Y-81280000D03*
X170180000Y-81280000D03*
%TD*%
D10*
%TO.C,J32*%
X71125000Y-33020000D03*
D11*
X73665000Y-33020000D03*
X76205000Y-33020000D03*
X78745000Y-33020000D03*
X81285000Y-33020000D03*
X83825000Y-33020000D03*
X86365000Y-33020000D03*
X88905000Y-33020000D03*
X91445000Y-33020000D03*
X93985000Y-33020000D03*
X96525000Y-33020000D03*
X99065000Y-33020000D03*
X101605000Y-33020000D03*
X104145000Y-33020000D03*
X106685000Y-33020000D03*
X109225000Y-33020000D03*
X111765000Y-33020000D03*
X114305000Y-33020000D03*
X116845000Y-33020000D03*
X119385000Y-33020000D03*
X121925000Y-33020000D03*
X124465000Y-33020000D03*
X127005000Y-33020000D03*
X129545000Y-33020000D03*
X132085000Y-33020000D03*
X134625000Y-33020000D03*
X137165000Y-33020000D03*
X139705000Y-33020000D03*
X142245000Y-33020000D03*
X144785000Y-33020000D03*
X147325000Y-33020000D03*
X149865000Y-33020000D03*
X152405000Y-33020000D03*
X154945000Y-33020000D03*
X157485000Y-33020000D03*
X160025000Y-33020000D03*
X162565000Y-33020000D03*
X165105000Y-33020000D03*
X167645000Y-33020000D03*
X170185000Y-33020000D03*
%TD*%
D10*
%TO.C,J11*%
X49540000Y-91440000D03*
D11*
X52080000Y-91440000D03*
X54620000Y-91440000D03*
X57160000Y-91440000D03*
%TD*%
D10*
%TO.C,J1*%
X182880000Y-34290000D03*
D11*
X185420000Y-34290000D03*
X187960000Y-34290000D03*
X190500000Y-34290000D03*
X193040000Y-34290000D03*
X195580000Y-34290000D03*
%TD*%
D10*
%TO.C,J8*%
X49540000Y-45720000D03*
D11*
X52080000Y-45720000D03*
X54620000Y-45720000D03*
X57160000Y-45720000D03*
%TD*%
D10*
%TO.C,+*%
X71125000Y-58420000D03*
D11*
X73665000Y-58420000D03*
X76205000Y-58420000D03*
X78745000Y-58420000D03*
X81285000Y-58420000D03*
X83825000Y-58420000D03*
X86365000Y-58420000D03*
X88905000Y-58420000D03*
X91445000Y-58420000D03*
X93985000Y-58420000D03*
X96525000Y-58420000D03*
X99065000Y-58420000D03*
X101605000Y-58420000D03*
X104145000Y-58420000D03*
X106685000Y-58420000D03*
X109225000Y-58420000D03*
X111765000Y-58420000D03*
X114305000Y-58420000D03*
X116845000Y-58420000D03*
X119385000Y-58420000D03*
X121925000Y-58420000D03*
X124465000Y-58420000D03*
X127005000Y-58420000D03*
X129545000Y-58420000D03*
X132085000Y-58420000D03*
X134625000Y-58420000D03*
X137165000Y-58420000D03*
X139705000Y-58420000D03*
X142245000Y-58420000D03*
X144785000Y-58420000D03*
X147325000Y-58420000D03*
X149865000Y-58420000D03*
X152405000Y-58420000D03*
X154945000Y-58420000D03*
X157485000Y-58420000D03*
X160025000Y-58420000D03*
X162565000Y-58420000D03*
X165105000Y-58420000D03*
X167645000Y-58420000D03*
X170185000Y-58420000D03*
%TD*%
D10*
%TO.C,J24*%
X71120000Y-88900000D03*
D11*
X73660000Y-88900000D03*
X76200000Y-88900000D03*
X78740000Y-88900000D03*
X81280000Y-88900000D03*
X83820000Y-88900000D03*
X86360000Y-88900000D03*
X88900000Y-88900000D03*
X91440000Y-88900000D03*
X93980000Y-88900000D03*
X96520000Y-88900000D03*
X99060000Y-88900000D03*
X101600000Y-88900000D03*
X104140000Y-88900000D03*
X106680000Y-88900000D03*
X109220000Y-88900000D03*
X111760000Y-88900000D03*
X114300000Y-88900000D03*
X116840000Y-88900000D03*
X119380000Y-88900000D03*
X121920000Y-88900000D03*
X124460000Y-88900000D03*
X127000000Y-88900000D03*
X129540000Y-88900000D03*
X132080000Y-88900000D03*
X134620000Y-88900000D03*
X137160000Y-88900000D03*
X139700000Y-88900000D03*
X142240000Y-88900000D03*
X144780000Y-88900000D03*
X147320000Y-88900000D03*
X149860000Y-88900000D03*
X152400000Y-88900000D03*
X154940000Y-88900000D03*
X157480000Y-88900000D03*
X160020000Y-88900000D03*
X162560000Y-88900000D03*
X165100000Y-88900000D03*
X167640000Y-88900000D03*
X170180000Y-88900000D03*
%TD*%
D10*
%TO.C,-*%
X71120000Y-55880000D03*
D11*
X73660000Y-55880000D03*
X76200000Y-55880000D03*
X78740000Y-55880000D03*
X81280000Y-55880000D03*
X83820000Y-55880000D03*
X86360000Y-55880000D03*
X88900000Y-55880000D03*
X91440000Y-55880000D03*
X93980000Y-55880000D03*
X96520000Y-55880000D03*
X99060000Y-55880000D03*
X101600000Y-55880000D03*
X104140000Y-55880000D03*
X106680000Y-55880000D03*
X109220000Y-55880000D03*
X111760000Y-55880000D03*
X114300000Y-55880000D03*
X116840000Y-55880000D03*
X119380000Y-55880000D03*
X121920000Y-55880000D03*
X124460000Y-55880000D03*
X127000000Y-55880000D03*
X129540000Y-55880000D03*
X132080000Y-55880000D03*
X134620000Y-55880000D03*
X137160000Y-55880000D03*
X139700000Y-55880000D03*
X142240000Y-55880000D03*
X144780000Y-55880000D03*
X147320000Y-55880000D03*
X149860000Y-55880000D03*
X152400000Y-55880000D03*
X154940000Y-55880000D03*
X157480000Y-55880000D03*
X160020000Y-55880000D03*
X162560000Y-55880000D03*
X165100000Y-55880000D03*
X167640000Y-55880000D03*
X170180000Y-55880000D03*
%TD*%
D10*
%TO.C,J28*%
X68580000Y-33030000D03*
D11*
X68580000Y-35570000D03*
X68580000Y-38110000D03*
X68580000Y-40650000D03*
%TD*%
D10*
%TO.C,J16*%
X71120000Y-48260000D03*
D11*
X73660000Y-48260000D03*
X76200000Y-48260000D03*
X78740000Y-48260000D03*
X81280000Y-48260000D03*
X83820000Y-48260000D03*
X86360000Y-48260000D03*
X88900000Y-48260000D03*
X91440000Y-48260000D03*
X93980000Y-48260000D03*
X96520000Y-48260000D03*
X99060000Y-48260000D03*
X101600000Y-48260000D03*
X104140000Y-48260000D03*
X106680000Y-48260000D03*
X109220000Y-48260000D03*
X111760000Y-48260000D03*
X114300000Y-48260000D03*
X116840000Y-48260000D03*
X119380000Y-48260000D03*
X121920000Y-48260000D03*
X124460000Y-48260000D03*
X127000000Y-48260000D03*
X129540000Y-48260000D03*
X132080000Y-48260000D03*
X134620000Y-48260000D03*
X137160000Y-48260000D03*
X139700000Y-48260000D03*
X142240000Y-48260000D03*
X144780000Y-48260000D03*
X147320000Y-48260000D03*
X149860000Y-48260000D03*
X152400000Y-48260000D03*
X154940000Y-48260000D03*
X157480000Y-48260000D03*
X160020000Y-48260000D03*
X162560000Y-48260000D03*
X165100000Y-48260000D03*
X167640000Y-48260000D03*
X170180000Y-48260000D03*
%TD*%
D10*
%TO.C,J17*%
X71120000Y-50800000D03*
D11*
X73660000Y-50800000D03*
X76200000Y-50800000D03*
X78740000Y-50800000D03*
X81280000Y-50800000D03*
X83820000Y-50800000D03*
X86360000Y-50800000D03*
X88900000Y-50800000D03*
X91440000Y-50800000D03*
X93980000Y-50800000D03*
X96520000Y-50800000D03*
X99060000Y-50800000D03*
X101600000Y-50800000D03*
X104140000Y-50800000D03*
X106680000Y-50800000D03*
X109220000Y-50800000D03*
X111760000Y-50800000D03*
X114300000Y-50800000D03*
X116840000Y-50800000D03*
X119380000Y-50800000D03*
X121920000Y-50800000D03*
X124460000Y-50800000D03*
X127000000Y-50800000D03*
X129540000Y-50800000D03*
X132080000Y-50800000D03*
X134620000Y-50800000D03*
X137160000Y-50800000D03*
X139700000Y-50800000D03*
X142240000Y-50800000D03*
X144780000Y-50800000D03*
X147320000Y-50800000D03*
X149860000Y-50800000D03*
X152400000Y-50800000D03*
X154940000Y-50800000D03*
X157480000Y-50800000D03*
X160020000Y-50800000D03*
X162560000Y-50800000D03*
X165100000Y-50800000D03*
X167640000Y-50800000D03*
X170180000Y-50800000D03*
%TD*%
D10*
%TO.C,J43*%
X190500000Y-60960000D03*
%TD*%
%TO.C,J29*%
X172720000Y-55890000D03*
D11*
X172720000Y-58430000D03*
X172720000Y-60970000D03*
X172720000Y-63510000D03*
%TD*%
D10*
%TO.C,J26*%
X71120000Y-93980000D03*
D11*
X73660000Y-93980000D03*
X76200000Y-93980000D03*
X78740000Y-93980000D03*
X81280000Y-93980000D03*
X83820000Y-93980000D03*
X86360000Y-93980000D03*
X88900000Y-93980000D03*
X91440000Y-93980000D03*
X93980000Y-93980000D03*
X96520000Y-93980000D03*
X99060000Y-93980000D03*
X101600000Y-93980000D03*
X104140000Y-93980000D03*
X106680000Y-93980000D03*
X109220000Y-93980000D03*
X111760000Y-93980000D03*
X114300000Y-93980000D03*
X116840000Y-93980000D03*
X119380000Y-93980000D03*
X121920000Y-93980000D03*
X124460000Y-93980000D03*
X127000000Y-93980000D03*
X129540000Y-93980000D03*
X132080000Y-93980000D03*
X134620000Y-93980000D03*
X137160000Y-93980000D03*
X139700000Y-93980000D03*
X142240000Y-93980000D03*
X144780000Y-93980000D03*
X147320000Y-93980000D03*
X149860000Y-93980000D03*
X152400000Y-93980000D03*
X154940000Y-93980000D03*
X157480000Y-93980000D03*
X160020000Y-93980000D03*
X162560000Y-93980000D03*
X165100000Y-93980000D03*
X167640000Y-93980000D03*
X170180000Y-93980000D03*
%TD*%
D10*
%TO.C,J13*%
X71120000Y-40640000D03*
D11*
X73660000Y-40640000D03*
X76200000Y-40640000D03*
X78740000Y-40640000D03*
X81280000Y-40640000D03*
X83820000Y-40640000D03*
X86360000Y-40640000D03*
X88900000Y-40640000D03*
X91440000Y-40640000D03*
X93980000Y-40640000D03*
X96520000Y-40640000D03*
X99060000Y-40640000D03*
X101600000Y-40640000D03*
X104140000Y-40640000D03*
X106680000Y-40640000D03*
X109220000Y-40640000D03*
X111760000Y-40640000D03*
X114300000Y-40640000D03*
X116840000Y-40640000D03*
X119380000Y-40640000D03*
X121920000Y-40640000D03*
X124460000Y-40640000D03*
X127000000Y-40640000D03*
X129540000Y-40640000D03*
X132080000Y-40640000D03*
X134620000Y-40640000D03*
X137160000Y-40640000D03*
X139700000Y-40640000D03*
X142240000Y-40640000D03*
X144780000Y-40640000D03*
X147320000Y-40640000D03*
X149860000Y-40640000D03*
X152400000Y-40640000D03*
X154940000Y-40640000D03*
X157480000Y-40640000D03*
X160020000Y-40640000D03*
X162560000Y-40640000D03*
X165100000Y-40640000D03*
X167640000Y-40640000D03*
X170180000Y-40640000D03*
%TD*%
D12*
%TO.C,REF\u002A\u002A*%
X176530000Y-91440000D03*
%TD*%
D10*
%TO.C,J10*%
X49540000Y-80010000D03*
D11*
X52080000Y-80010000D03*
X54620000Y-80010000D03*
X57160000Y-80010000D03*
%TD*%
D10*
%TO.C,J3*%
X182880000Y-57150000D03*
D11*
X185420000Y-57150000D03*
X187960000Y-57150000D03*
X190500000Y-57150000D03*
X193040000Y-57150000D03*
X195580000Y-57150000D03*
%TD*%
D10*
%TO.C,J46*%
X187960000Y-96520000D03*
%TD*%
%TO.C,J6*%
X182880000Y-91440000D03*
D11*
X185420000Y-91440000D03*
X187960000Y-91440000D03*
X190500000Y-91440000D03*
X193040000Y-91440000D03*
X195580000Y-91440000D03*
%TD*%
D10*
%TO.C,-*%
X71120000Y-101600000D03*
D11*
X73660000Y-101600000D03*
X76200000Y-101600000D03*
X78740000Y-101600000D03*
X81280000Y-101600000D03*
X83820000Y-101600000D03*
X86360000Y-101600000D03*
X88900000Y-101600000D03*
X91440000Y-101600000D03*
X93980000Y-101600000D03*
X96520000Y-101600000D03*
X99060000Y-101600000D03*
X101600000Y-101600000D03*
X104140000Y-101600000D03*
X106680000Y-101600000D03*
X109220000Y-101600000D03*
X111760000Y-101600000D03*
X114300000Y-101600000D03*
X116840000Y-101600000D03*
X119380000Y-101600000D03*
X121920000Y-101600000D03*
X124460000Y-101600000D03*
X127000000Y-101600000D03*
X129540000Y-101600000D03*
X132080000Y-101600000D03*
X134620000Y-101600000D03*
X137160000Y-101600000D03*
X139700000Y-101600000D03*
X142240000Y-101600000D03*
X144780000Y-101600000D03*
X147320000Y-101600000D03*
X149860000Y-101600000D03*
X152400000Y-101600000D03*
X154940000Y-101600000D03*
X157480000Y-101600000D03*
X160020000Y-101600000D03*
X162560000Y-101600000D03*
X165100000Y-101600000D03*
X167640000Y-101600000D03*
X170180000Y-101600000D03*
%TD*%
D10*
%TO.C,J45*%
X190500000Y-85090000D03*
%TD*%
D12*
%TO.C,REF\u002A\u002A*%
X63500000Y-91440000D03*
%TD*%
D10*
%TO.C,J36*%
X71125000Y-78740000D03*
D11*
X73665000Y-78740000D03*
X76205000Y-78740000D03*
X78745000Y-78740000D03*
X81285000Y-78740000D03*
X83825000Y-78740000D03*
X86365000Y-78740000D03*
X88905000Y-78740000D03*
X91445000Y-78740000D03*
X93985000Y-78740000D03*
X96525000Y-78740000D03*
X99065000Y-78740000D03*
X101605000Y-78740000D03*
X104145000Y-78740000D03*
X106685000Y-78740000D03*
X109225000Y-78740000D03*
X111765000Y-78740000D03*
X114305000Y-78740000D03*
X116845000Y-78740000D03*
X119385000Y-78740000D03*
X121925000Y-78740000D03*
X124465000Y-78740000D03*
X127005000Y-78740000D03*
X129545000Y-78740000D03*
X132085000Y-78740000D03*
X134625000Y-78740000D03*
X137165000Y-78740000D03*
X139705000Y-78740000D03*
X142245000Y-78740000D03*
X144785000Y-78740000D03*
X147325000Y-78740000D03*
X149865000Y-78740000D03*
X152405000Y-78740000D03*
X154945000Y-78740000D03*
X157485000Y-78740000D03*
X160025000Y-78740000D03*
X162565000Y-78740000D03*
X165105000Y-78740000D03*
X167645000Y-78740000D03*
X170185000Y-78740000D03*
%TD*%
D10*
%TO.C,J9*%
X49530000Y-57150000D03*
D11*
X52070000Y-57150000D03*
X54610000Y-57150000D03*
X57150000Y-57150000D03*
%TD*%
D10*
%TO.C,J42*%
X190500000Y-50800000D03*
%TD*%
%TO.C,J5*%
X182880000Y-80010000D03*
D11*
X185420000Y-80010000D03*
X187960000Y-80010000D03*
X190500000Y-80010000D03*
X193040000Y-80010000D03*
X195580000Y-80010000D03*
%TD*%
D10*
%TO.C,J41*%
X190500000Y-39370000D03*
%TD*%
%TO.C,J21*%
X71120000Y-71120000D03*
D11*
X73660000Y-71120000D03*
X76200000Y-71120000D03*
X78740000Y-71120000D03*
X81280000Y-71120000D03*
X83820000Y-71120000D03*
X86360000Y-71120000D03*
X88900000Y-71120000D03*
X91440000Y-71120000D03*
X93980000Y-71120000D03*
X96520000Y-71120000D03*
X99060000Y-71120000D03*
X101600000Y-71120000D03*
X104140000Y-71120000D03*
X106680000Y-71120000D03*
X109220000Y-71120000D03*
X111760000Y-71120000D03*
X114300000Y-71120000D03*
X116840000Y-71120000D03*
X119380000Y-71120000D03*
X121920000Y-71120000D03*
X124460000Y-71120000D03*
X127000000Y-71120000D03*
X129540000Y-71120000D03*
X132080000Y-71120000D03*
X134620000Y-71120000D03*
X137160000Y-71120000D03*
X139700000Y-71120000D03*
X142240000Y-71120000D03*
X144780000Y-71120000D03*
X147320000Y-71120000D03*
X149860000Y-71120000D03*
X152400000Y-71120000D03*
X154940000Y-71120000D03*
X157480000Y-71120000D03*
X160020000Y-71120000D03*
X162560000Y-71120000D03*
X165100000Y-71120000D03*
X167640000Y-71120000D03*
X170180000Y-71120000D03*
%TD*%
D10*
%TO.C,J30*%
X68580000Y-78740000D03*
D11*
X68580000Y-81280000D03*
X68580000Y-83820000D03*
X68580000Y-86360000D03*
%TD*%
D10*
%TO.C,J20*%
X71120000Y-68580000D03*
D11*
X73660000Y-68580000D03*
X76200000Y-68580000D03*
X78740000Y-68580000D03*
X81280000Y-68580000D03*
X83820000Y-68580000D03*
X86360000Y-68580000D03*
X88900000Y-68580000D03*
X91440000Y-68580000D03*
X93980000Y-68580000D03*
X96520000Y-68580000D03*
X99060000Y-68580000D03*
X101600000Y-68580000D03*
X104140000Y-68580000D03*
X106680000Y-68580000D03*
X109220000Y-68580000D03*
X111760000Y-68580000D03*
X114300000Y-68580000D03*
X116840000Y-68580000D03*
X119380000Y-68580000D03*
X121920000Y-68580000D03*
X124460000Y-68580000D03*
X127000000Y-68580000D03*
X129540000Y-68580000D03*
X132080000Y-68580000D03*
X134620000Y-68580000D03*
X137160000Y-68580000D03*
X139700000Y-68580000D03*
X142240000Y-68580000D03*
X144780000Y-68580000D03*
X147320000Y-68580000D03*
X149860000Y-68580000D03*
X152400000Y-68580000D03*
X154940000Y-68580000D03*
X157480000Y-68580000D03*
X160020000Y-68580000D03*
X162560000Y-68580000D03*
X165100000Y-68580000D03*
X167640000Y-68580000D03*
X170180000Y-68580000D03*
%TD*%
D10*
%TO.C,J14*%
X71120000Y-43180000D03*
D11*
X73660000Y-43180000D03*
X76200000Y-43180000D03*
X78740000Y-43180000D03*
X81280000Y-43180000D03*
X83820000Y-43180000D03*
X86360000Y-43180000D03*
X88900000Y-43180000D03*
X91440000Y-43180000D03*
X93980000Y-43180000D03*
X96520000Y-43180000D03*
X99060000Y-43180000D03*
X101600000Y-43180000D03*
X104140000Y-43180000D03*
X106680000Y-43180000D03*
X109220000Y-43180000D03*
X111760000Y-43180000D03*
X114300000Y-43180000D03*
X116840000Y-43180000D03*
X119380000Y-43180000D03*
X121920000Y-43180000D03*
X124460000Y-43180000D03*
X127000000Y-43180000D03*
X129540000Y-43180000D03*
X132080000Y-43180000D03*
X134620000Y-43180000D03*
X137160000Y-43180000D03*
X139700000Y-43180000D03*
X142240000Y-43180000D03*
X144780000Y-43180000D03*
X147320000Y-43180000D03*
X149860000Y-43180000D03*
X152400000Y-43180000D03*
X154940000Y-43180000D03*
X157480000Y-43180000D03*
X160020000Y-43180000D03*
X162560000Y-43180000D03*
X165100000Y-43180000D03*
X167640000Y-43180000D03*
X170180000Y-43180000D03*
%TD*%
D10*
%TO.C,J4*%
X182880000Y-68580000D03*
D11*
X185420000Y-68580000D03*
X187960000Y-68580000D03*
X190500000Y-68580000D03*
X193040000Y-68580000D03*
X195580000Y-68580000D03*
%TD*%
D10*
%TO.C,J19*%
X71120000Y-66040000D03*
D11*
X73660000Y-66040000D03*
X76200000Y-66040000D03*
X78740000Y-66040000D03*
X81280000Y-66040000D03*
X83820000Y-66040000D03*
X86360000Y-66040000D03*
X88900000Y-66040000D03*
X91440000Y-66040000D03*
X93980000Y-66040000D03*
X96520000Y-66040000D03*
X99060000Y-66040000D03*
X101600000Y-66040000D03*
X104140000Y-66040000D03*
X106680000Y-66040000D03*
X109220000Y-66040000D03*
X111760000Y-66040000D03*
X114300000Y-66040000D03*
X116840000Y-66040000D03*
X119380000Y-66040000D03*
X121920000Y-66040000D03*
X124460000Y-66040000D03*
X127000000Y-66040000D03*
X129540000Y-66040000D03*
X132080000Y-66040000D03*
X134620000Y-66040000D03*
X137160000Y-66040000D03*
X139700000Y-66040000D03*
X142240000Y-66040000D03*
X144780000Y-66040000D03*
X147320000Y-66040000D03*
X149860000Y-66040000D03*
X152400000Y-66040000D03*
X154940000Y-66040000D03*
X157480000Y-66040000D03*
X160020000Y-66040000D03*
X162560000Y-66040000D03*
X165100000Y-66040000D03*
X167640000Y-66040000D03*
X170180000Y-66040000D03*
%TD*%
D10*
%TO.C,J44*%
X190500000Y-73660000D03*
%TD*%
%TO.C,J18*%
X71120000Y-63500000D03*
D11*
X73660000Y-63500000D03*
X76200000Y-63500000D03*
X78740000Y-63500000D03*
X81280000Y-63500000D03*
X83820000Y-63500000D03*
X86360000Y-63500000D03*
X88900000Y-63500000D03*
X91440000Y-63500000D03*
X93980000Y-63500000D03*
X96520000Y-63500000D03*
X99060000Y-63500000D03*
X101600000Y-63500000D03*
X104140000Y-63500000D03*
X106680000Y-63500000D03*
X109220000Y-63500000D03*
X111760000Y-63500000D03*
X114300000Y-63500000D03*
X116840000Y-63500000D03*
X119380000Y-63500000D03*
X121920000Y-63500000D03*
X124460000Y-63500000D03*
X127000000Y-63500000D03*
X129540000Y-63500000D03*
X132080000Y-63500000D03*
X134620000Y-63500000D03*
X137160000Y-63500000D03*
X139700000Y-63500000D03*
X142240000Y-63500000D03*
X144780000Y-63500000D03*
X147320000Y-63500000D03*
X149860000Y-63500000D03*
X152400000Y-63500000D03*
X154940000Y-63500000D03*
X157480000Y-63500000D03*
X160020000Y-63500000D03*
X162560000Y-63500000D03*
X165100000Y-63500000D03*
X167640000Y-63500000D03*
X170180000Y-63500000D03*
%TD*%
D10*
%TO.C,J22*%
X71120000Y-73660000D03*
D11*
X73660000Y-73660000D03*
X76200000Y-73660000D03*
X78740000Y-73660000D03*
X81280000Y-73660000D03*
X83820000Y-73660000D03*
X86360000Y-73660000D03*
X88900000Y-73660000D03*
X91440000Y-73660000D03*
X93980000Y-73660000D03*
X96520000Y-73660000D03*
X99060000Y-73660000D03*
X101600000Y-73660000D03*
X104140000Y-73660000D03*
X106680000Y-73660000D03*
X109220000Y-73660000D03*
X111760000Y-73660000D03*
X114300000Y-73660000D03*
X116840000Y-73660000D03*
X119380000Y-73660000D03*
X121920000Y-73660000D03*
X124460000Y-73660000D03*
X127000000Y-73660000D03*
X129540000Y-73660000D03*
X132080000Y-73660000D03*
X134620000Y-73660000D03*
X137160000Y-73660000D03*
X139700000Y-73660000D03*
X142240000Y-73660000D03*
X144780000Y-73660000D03*
X147320000Y-73660000D03*
X149860000Y-73660000D03*
X152400000Y-73660000D03*
X154940000Y-73660000D03*
X157480000Y-73660000D03*
X160020000Y-73660000D03*
X162560000Y-73660000D03*
X165100000Y-73660000D03*
X167640000Y-73660000D03*
X170180000Y-73660000D03*
%TD*%
M02*
