%TF.GenerationSoftware,KiCad,Pcbnew,(6.0.1)*%
%TF.CreationDate,2022-02-22T13:55:29+13:00*%
%TF.ProjectId,perma-proto-board,7065726d-612d-4707-926f-746f2d626f61,rev?*%
%TF.SameCoordinates,Original*%
%TF.FileFunction,Legend,Top*%
%TF.FilePolarity,Positive*%
%FSLAX46Y46*%
G04 Gerber Fmt 4.6, Leading zero omitted, Abs format (unit mm)*
G04 Created by KiCad (PCBNEW (6.0.1)) date 2022-02-22 13:55:29*
%MOMM*%
%LPD*%
G01*
G04 APERTURE LIST*
%ADD10C,0.150000*%
%ADD11C,0.120000*%
G04 APERTURE END LIST*
D10*
X174879047Y-55951428D02*
X175640952Y-55951428D01*
X49910952Y-88828571D02*
X49149047Y-88828571D01*
X173609047Y-81351428D02*
X174370952Y-81351428D01*
X173990000Y-81732380D02*
X173990000Y-80970476D01*
X174887142Y-62952380D02*
X175220476Y-63952380D01*
X175553809Y-62952380D01*
X175887142Y-63952380D02*
X175887142Y-62952380D01*
X175887142Y-63333333D02*
X175982380Y-63285714D01*
X176172857Y-63285714D01*
X176268095Y-63333333D01*
X176315714Y-63380952D01*
X176363333Y-63476190D01*
X176363333Y-63761904D01*
X176315714Y-63857142D01*
X176268095Y-63904761D01*
X176172857Y-63952380D01*
X175982380Y-63952380D01*
X175887142Y-63904761D01*
X177220476Y-63285714D02*
X177220476Y-63952380D01*
X176791904Y-63285714D02*
X176791904Y-63809523D01*
X176839523Y-63904761D01*
X176934761Y-63952380D01*
X177077619Y-63952380D01*
X177172857Y-63904761D01*
X177220476Y-63857142D01*
X177649047Y-63904761D02*
X177744285Y-63952380D01*
X177934761Y-63952380D01*
X178030000Y-63904761D01*
X178077619Y-63809523D01*
X178077619Y-63761904D01*
X178030000Y-63666666D01*
X177934761Y-63619047D01*
X177791904Y-63619047D01*
X177696666Y-63571428D01*
X177649047Y-63476190D01*
X177649047Y-63428571D01*
X177696666Y-63333333D01*
X177791904Y-63285714D01*
X177934761Y-63285714D01*
X178030000Y-63333333D01*
X182499047Y-31821428D02*
X183260952Y-31821428D01*
X63127142Y-40092380D02*
X63460476Y-41092380D01*
X63793809Y-40092380D01*
X64127142Y-41092380D02*
X64127142Y-40092380D01*
X64127142Y-40473333D02*
X64222380Y-40425714D01*
X64412857Y-40425714D01*
X64508095Y-40473333D01*
X64555714Y-40520952D01*
X64603333Y-40616190D01*
X64603333Y-40901904D01*
X64555714Y-40997142D01*
X64508095Y-41044761D01*
X64412857Y-41092380D01*
X64222380Y-41092380D01*
X64127142Y-41044761D01*
X65460476Y-40425714D02*
X65460476Y-41092380D01*
X65031904Y-40425714D02*
X65031904Y-40949523D01*
X65079523Y-41044761D01*
X65174761Y-41092380D01*
X65317619Y-41092380D01*
X65412857Y-41044761D01*
X65460476Y-40997142D01*
X65889047Y-41044761D02*
X65984285Y-41092380D01*
X66174761Y-41092380D01*
X66270000Y-41044761D01*
X66317619Y-40949523D01*
X66317619Y-40901904D01*
X66270000Y-40806666D01*
X66174761Y-40759047D01*
X66031904Y-40759047D01*
X65936666Y-40711428D01*
X65889047Y-40616190D01*
X65889047Y-40568571D01*
X65936666Y-40473333D01*
X66031904Y-40425714D01*
X66174761Y-40425714D01*
X66270000Y-40473333D01*
X65659047Y-81351428D02*
X66420952Y-81351428D01*
X66040000Y-81732380D02*
X66040000Y-80970476D01*
X49910952Y-77398571D02*
X49149047Y-77398571D01*
X49910952Y-43108571D02*
X49149047Y-43108571D01*
X173609047Y-35631428D02*
X174370952Y-35631428D01*
X173990000Y-36012380D02*
X173990000Y-35250476D01*
X49910952Y-54538571D02*
X49149047Y-54538571D01*
X174879047Y-101671428D02*
X175640952Y-101671428D01*
X51689047Y-43251428D02*
X52450952Y-43251428D01*
X52070000Y-43632380D02*
X52070000Y-42870476D01*
X173609047Y-78811428D02*
X174370952Y-78811428D01*
X182499047Y-54681428D02*
X183260952Y-54681428D01*
X185039047Y-43251428D02*
X185800952Y-43251428D01*
X185420000Y-43632380D02*
X185420000Y-42870476D01*
X182499047Y-88971428D02*
X183260952Y-88971428D01*
X51689047Y-88971428D02*
X52450952Y-88971428D01*
X52070000Y-89352380D02*
X52070000Y-88590476D01*
X173609047Y-33091428D02*
X174370952Y-33091428D01*
X65659047Y-35631428D02*
X66420952Y-35631428D01*
X66040000Y-36012380D02*
X66040000Y-35250476D01*
X49910952Y-31678571D02*
X49149047Y-31678571D01*
X51689047Y-77541428D02*
X52450952Y-77541428D01*
X52070000Y-77922380D02*
X52070000Y-77160476D01*
X182499047Y-43251428D02*
X183260952Y-43251428D01*
X174879047Y-58491428D02*
X175640952Y-58491428D01*
X175260000Y-58872380D02*
X175260000Y-58110476D01*
X174879047Y-104241428D02*
X175640952Y-104241428D01*
X175260000Y-104622380D02*
X175260000Y-103860476D01*
X51689047Y-31821428D02*
X52450952Y-31821428D01*
X52070000Y-32202380D02*
X52070000Y-31440476D01*
X185039047Y-66111428D02*
X185800952Y-66111428D01*
X185420000Y-66492380D02*
X185420000Y-65730476D01*
X65659047Y-78811428D02*
X66420952Y-78811428D01*
X185023033Y-54649400D02*
X185784938Y-54649400D01*
X185403986Y-55030352D02*
X185403986Y-54268448D01*
X63127142Y-85812380D02*
X63460476Y-86812380D01*
X63793809Y-85812380D01*
X64127142Y-86812380D02*
X64127142Y-85812380D01*
X64127142Y-86193333D02*
X64222380Y-86145714D01*
X64412857Y-86145714D01*
X64508095Y-86193333D01*
X64555714Y-86240952D01*
X64603333Y-86336190D01*
X64603333Y-86621904D01*
X64555714Y-86717142D01*
X64508095Y-86764761D01*
X64412857Y-86812380D01*
X64222380Y-86812380D01*
X64127142Y-86764761D01*
X65460476Y-86145714D02*
X65460476Y-86812380D01*
X65031904Y-86145714D02*
X65031904Y-86669523D01*
X65079523Y-86764761D01*
X65174761Y-86812380D01*
X65317619Y-86812380D01*
X65412857Y-86764761D01*
X65460476Y-86717142D01*
X65889047Y-86764761D02*
X65984285Y-86812380D01*
X66174761Y-86812380D01*
X66270000Y-86764761D01*
X66317619Y-86669523D01*
X66317619Y-86621904D01*
X66270000Y-86526666D01*
X66174761Y-86479047D01*
X66031904Y-86479047D01*
X65936666Y-86431428D01*
X65889047Y-86336190D01*
X65889047Y-86288571D01*
X65936666Y-86193333D01*
X66031904Y-86145714D01*
X66174761Y-86145714D01*
X66270000Y-86193333D01*
X185039047Y-31821428D02*
X185800952Y-31821428D01*
X185420000Y-32202380D02*
X185420000Y-31440476D01*
X182499047Y-66111428D02*
X183260952Y-66111428D01*
X185039047Y-77541428D02*
X185800952Y-77541428D01*
X185420000Y-77922380D02*
X185420000Y-77160476D01*
X49910952Y-65968571D02*
X49149047Y-65968571D01*
X66420952Y-32948571D02*
X65659047Y-32948571D01*
X182499047Y-77541428D02*
X183260952Y-77541428D01*
X185039047Y-88971428D02*
X185800952Y-88971428D01*
X185420000Y-89352380D02*
X185420000Y-88590476D01*
X51689047Y-66111428D02*
X52450952Y-66111428D01*
X52070000Y-66492380D02*
X52070000Y-65730476D01*
X51689047Y-54681428D02*
X52450952Y-54681428D01*
X52070000Y-55062380D02*
X52070000Y-54300476D01*
%TO.C,J23*%
X68242380Y-87169523D02*
X68956666Y-87169523D01*
X69099523Y-87217142D01*
X69194761Y-87312380D01*
X69242380Y-87455238D01*
X69242380Y-87550476D01*
X68337619Y-86740952D02*
X68290000Y-86693333D01*
X68242380Y-86598095D01*
X68242380Y-86360000D01*
X68290000Y-86264761D01*
X68337619Y-86217142D01*
X68432857Y-86169523D01*
X68528095Y-86169523D01*
X68670952Y-86217142D01*
X69242380Y-86788571D01*
X69242380Y-86169523D01*
X68242380Y-85836190D02*
X68242380Y-85217142D01*
X68623333Y-85550476D01*
X68623333Y-85407619D01*
X68670952Y-85312380D01*
X68718571Y-85264761D01*
X68813809Y-85217142D01*
X69051904Y-85217142D01*
X69147142Y-85264761D01*
X69194761Y-85312380D01*
X69242380Y-85407619D01*
X69242380Y-85693333D01*
X69194761Y-85788571D01*
X69147142Y-85836190D01*
%TO.C,+*%
X68861428Y-104520952D02*
X68861428Y-103759047D01*
X69242380Y-104140000D02*
X68480476Y-104140000D01*
%TO.C,J37*%
X68242380Y-82089523D02*
X68956666Y-82089523D01*
X69099523Y-82137142D01*
X69194761Y-82232380D01*
X69242380Y-82375238D01*
X69242380Y-82470476D01*
X68242380Y-81708571D02*
X68242380Y-81089523D01*
X68623333Y-81422857D01*
X68623333Y-81280000D01*
X68670952Y-81184761D01*
X68718571Y-81137142D01*
X68813809Y-81089523D01*
X69051904Y-81089523D01*
X69147142Y-81137142D01*
X69194761Y-81184761D01*
X69242380Y-81280000D01*
X69242380Y-81565714D01*
X69194761Y-81660952D01*
X69147142Y-81708571D01*
X68242380Y-80756190D02*
X68242380Y-80089523D01*
X69242380Y-80518095D01*
%TO.C,+*%
X68866428Y-58800952D02*
X68866428Y-58039047D01*
X69247380Y-58420000D02*
X68485476Y-58420000D01*
%TO.C,-*%
X68409047Y-55951428D02*
X69170952Y-55951428D01*
X68409047Y-101671428D02*
X69170952Y-101671428D01*
%TO.C,J36*%
X68247380Y-79549523D02*
X68961666Y-79549523D01*
X69104523Y-79597142D01*
X69199761Y-79692380D01*
X69247380Y-79835238D01*
X69247380Y-79930476D01*
X68247380Y-79168571D02*
X68247380Y-78549523D01*
X68628333Y-78882857D01*
X68628333Y-78740000D01*
X68675952Y-78644761D01*
X68723571Y-78597142D01*
X68818809Y-78549523D01*
X69056904Y-78549523D01*
X69152142Y-78597142D01*
X69199761Y-78644761D01*
X69247380Y-78740000D01*
X69247380Y-79025714D01*
X69199761Y-79120952D01*
X69152142Y-79168571D01*
X68247380Y-77692380D02*
X68247380Y-77882857D01*
X68295000Y-77978095D01*
X68342619Y-78025714D01*
X68485476Y-78120952D01*
X68675952Y-78168571D01*
X69056904Y-78168571D01*
X69152142Y-78120952D01*
X69199761Y-78073333D01*
X69247380Y-77978095D01*
X69247380Y-77787619D01*
X69199761Y-77692380D01*
X69152142Y-77644761D01*
X69056904Y-77597142D01*
X68818809Y-77597142D01*
X68723571Y-77644761D01*
X68675952Y-77692380D01*
X68628333Y-77787619D01*
X68628333Y-77978095D01*
X68675952Y-78073333D01*
X68723571Y-78120952D01*
X68818809Y-78168571D01*
D11*
%TO.C,J27*%
X72390000Y-97850000D02*
X72390000Y-95190000D01*
X171510000Y-97850000D02*
X171510000Y-95190000D01*
X71120000Y-97850000D02*
X69790000Y-97850000D01*
X69790000Y-97850000D02*
X69790000Y-96520000D01*
X72390000Y-97850000D02*
X171510000Y-97850000D01*
X72390000Y-95190000D02*
X171510000Y-95190000D01*
%TO.C,J2*%
X184150000Y-47050000D02*
X184150000Y-44390000D01*
X184150000Y-44390000D02*
X196910000Y-44390000D01*
X184150000Y-47050000D02*
X196910000Y-47050000D01*
X182880000Y-47050000D02*
X181550000Y-47050000D01*
X196910000Y-47050000D02*
X196910000Y-44390000D01*
X181550000Y-47050000D02*
X181550000Y-45720000D01*
%TO.C,J33*%
X71125000Y-36890000D02*
X69795000Y-36890000D01*
X72395000Y-34230000D02*
X171515000Y-34230000D01*
X72395000Y-36890000D02*
X72395000Y-34230000D01*
X171515000Y-36890000D02*
X171515000Y-34230000D01*
X69795000Y-36890000D02*
X69795000Y-35560000D01*
X72395000Y-36890000D02*
X171515000Y-36890000D01*
%TO.C,J7*%
X48200000Y-35620000D02*
X48200000Y-34290000D01*
X49530000Y-35620000D02*
X48200000Y-35620000D01*
X50800000Y-32960000D02*
X58480000Y-32960000D01*
X58480000Y-35620000D02*
X58480000Y-32960000D01*
X50800000Y-35620000D02*
X50800000Y-32960000D01*
X50800000Y-35620000D02*
X58480000Y-35620000D01*
%TO.C,J23*%
X171510000Y-87690000D02*
X171510000Y-85030000D01*
X72390000Y-87690000D02*
X72390000Y-85030000D01*
X72390000Y-85030000D02*
X171510000Y-85030000D01*
X71120000Y-87690000D02*
X69790000Y-87690000D01*
X72390000Y-87690000D02*
X171510000Y-87690000D01*
X69790000Y-87690000D02*
X69790000Y-86360000D01*
%TO.C,J15*%
X69790000Y-47050000D02*
X69790000Y-45720000D01*
X72390000Y-44390000D02*
X171510000Y-44390000D01*
X71120000Y-47050000D02*
X69790000Y-47050000D01*
X72390000Y-47050000D02*
X72390000Y-44390000D01*
X72390000Y-47050000D02*
X171510000Y-47050000D01*
X171510000Y-47050000D02*
X171510000Y-44390000D01*
%TO.C,+*%
X72390000Y-102810000D02*
X171510000Y-102810000D01*
X72390000Y-105470000D02*
X72390000Y-102810000D01*
X69790000Y-105470000D02*
X69790000Y-104140000D01*
X171510000Y-105470000D02*
X171510000Y-102810000D01*
X71120000Y-105470000D02*
X69790000Y-105470000D01*
X72390000Y-105470000D02*
X171510000Y-105470000D01*
%TO.C,J25*%
X69790000Y-92770000D02*
X69790000Y-91440000D01*
X171510000Y-92770000D02*
X171510000Y-90110000D01*
X72390000Y-90110000D02*
X171510000Y-90110000D01*
X71120000Y-92770000D02*
X69790000Y-92770000D01*
X72390000Y-92770000D02*
X171510000Y-92770000D01*
X72390000Y-92770000D02*
X72390000Y-90110000D01*
%TO.C,J12*%
X49530000Y-69910000D02*
X48200000Y-69910000D01*
X58480000Y-69910000D02*
X58480000Y-67250000D01*
X50800000Y-67250000D02*
X58480000Y-67250000D01*
X48200000Y-69910000D02*
X48200000Y-68580000D01*
X50800000Y-69910000D02*
X58480000Y-69910000D01*
X50800000Y-69910000D02*
X50800000Y-67250000D01*
%TO.C,J40*%
X196220000Y-96900000D02*
X198220000Y-96900000D01*
X202020000Y-106300000D02*
X202020000Y-96900000D01*
X200120000Y-96900000D02*
X202020000Y-96900000D01*
X196220000Y-106300000D02*
X198220000Y-106300000D01*
X200120000Y-106300000D02*
X202020000Y-106300000D01*
%TO.C,J31*%
X171390000Y-101600000D02*
X171390000Y-100270000D01*
X171390000Y-100270000D02*
X172720000Y-100270000D01*
X174050000Y-102870000D02*
X174050000Y-105470000D01*
X171390000Y-105470000D02*
X174050000Y-105470000D01*
X171390000Y-102870000D02*
X171390000Y-105470000D01*
X171390000Y-102870000D02*
X174050000Y-102870000D01*
%TO.C,J37*%
X72390000Y-82610000D02*
X72390000Y-79950000D01*
X71120000Y-82610000D02*
X69790000Y-82610000D01*
X72390000Y-79950000D02*
X171510000Y-79950000D01*
X69790000Y-82610000D02*
X69790000Y-81280000D01*
X72390000Y-82610000D02*
X171510000Y-82610000D01*
X171510000Y-82610000D02*
X171510000Y-79950000D01*
%TO.C,J32*%
X69795000Y-34350000D02*
X69795000Y-33020000D01*
X72395000Y-31690000D02*
X171515000Y-31690000D01*
X72395000Y-34350000D02*
X72395000Y-31690000D01*
X171515000Y-34350000D02*
X171515000Y-31690000D01*
X71125000Y-34350000D02*
X69795000Y-34350000D01*
X72395000Y-34350000D02*
X171515000Y-34350000D01*
%TO.C,J11*%
X50810000Y-92770000D02*
X50810000Y-90110000D01*
X49540000Y-92770000D02*
X48210000Y-92770000D01*
X50810000Y-90110000D02*
X58490000Y-90110000D01*
X58490000Y-92770000D02*
X58490000Y-90110000D01*
X50810000Y-92770000D02*
X58490000Y-92770000D01*
X48210000Y-92770000D02*
X48210000Y-91440000D01*
%TO.C,J1*%
X196910000Y-35620000D02*
X196910000Y-32960000D01*
X184150000Y-35620000D02*
X196910000Y-35620000D01*
X184150000Y-35620000D02*
X184150000Y-32960000D01*
X181550000Y-35620000D02*
X181550000Y-34290000D01*
X182880000Y-35620000D02*
X181550000Y-35620000D01*
X184150000Y-32960000D02*
X196910000Y-32960000D01*
%TO.C,J8*%
X48210000Y-47050000D02*
X48210000Y-45720000D01*
X58490000Y-47050000D02*
X58490000Y-44390000D01*
X49540000Y-47050000D02*
X48210000Y-47050000D01*
X50810000Y-47050000D02*
X50810000Y-44390000D01*
X50810000Y-44390000D02*
X58490000Y-44390000D01*
X50810000Y-47050000D02*
X58490000Y-47050000D01*
%TO.C,+*%
X69795000Y-59750000D02*
X69795000Y-58420000D01*
X171515000Y-59750000D02*
X171515000Y-57090000D01*
X72395000Y-57090000D02*
X171515000Y-57090000D01*
X71125000Y-59750000D02*
X69795000Y-59750000D01*
X72395000Y-59750000D02*
X171515000Y-59750000D01*
X72395000Y-59750000D02*
X72395000Y-57090000D01*
%TO.C,J24*%
X72390000Y-90230000D02*
X171510000Y-90230000D01*
X72390000Y-87570000D02*
X171510000Y-87570000D01*
X72390000Y-90230000D02*
X72390000Y-87570000D01*
X71120000Y-90230000D02*
X69790000Y-90230000D01*
X171510000Y-90230000D02*
X171510000Y-87570000D01*
X69790000Y-90230000D02*
X69790000Y-88900000D01*
%TO.C,-*%
X171510000Y-57210000D02*
X171510000Y-54550000D01*
X72390000Y-57210000D02*
X72390000Y-54550000D01*
X69790000Y-57210000D02*
X69790000Y-55880000D01*
X72390000Y-57210000D02*
X171510000Y-57210000D01*
X71120000Y-57210000D02*
X69790000Y-57210000D01*
X72390000Y-54550000D02*
X171510000Y-54550000D01*
%TO.C,J28*%
X67250000Y-31700000D02*
X68580000Y-31700000D01*
X67250000Y-34300000D02*
X69910000Y-34300000D01*
X69910000Y-34300000D02*
X69910000Y-41980000D01*
X67250000Y-33030000D02*
X67250000Y-31700000D01*
X67250000Y-41980000D02*
X69910000Y-41980000D01*
X67250000Y-34300000D02*
X67250000Y-41980000D01*
%TO.C,J16*%
X72390000Y-46930000D02*
X171510000Y-46930000D01*
X72390000Y-49590000D02*
X171510000Y-49590000D01*
X171510000Y-49590000D02*
X171510000Y-46930000D01*
X71120000Y-49590000D02*
X69790000Y-49590000D01*
X72390000Y-49590000D02*
X72390000Y-46930000D01*
X69790000Y-49590000D02*
X69790000Y-48260000D01*
%TO.C,J17*%
X71120000Y-52130000D02*
X69790000Y-52130000D01*
X171510000Y-52130000D02*
X171510000Y-49470000D01*
X69790000Y-52130000D02*
X69790000Y-50800000D01*
X72390000Y-52130000D02*
X72390000Y-49470000D01*
X72390000Y-49470000D02*
X171510000Y-49470000D01*
X72390000Y-52130000D02*
X171510000Y-52130000D01*
%TO.C,J43*%
X189170000Y-62230000D02*
X191830000Y-62230000D01*
X189170000Y-62230000D02*
X189170000Y-62290000D01*
X191830000Y-62230000D02*
X191830000Y-62290000D01*
X189170000Y-59630000D02*
X190500000Y-59630000D01*
X189170000Y-62290000D02*
X191830000Y-62290000D01*
X189170000Y-60960000D02*
X189170000Y-59630000D01*
%TO.C,J29*%
X171390000Y-54560000D02*
X172720000Y-54560000D01*
X174050000Y-57160000D02*
X174050000Y-64840000D01*
X171390000Y-64840000D02*
X174050000Y-64840000D01*
X171390000Y-57160000D02*
X174050000Y-57160000D01*
X171390000Y-55890000D02*
X171390000Y-54560000D01*
X171390000Y-57160000D02*
X171390000Y-64840000D01*
%TO.C,J26*%
X72390000Y-95310000D02*
X72390000Y-92650000D01*
X72390000Y-95310000D02*
X171510000Y-95310000D01*
X171510000Y-95310000D02*
X171510000Y-92650000D01*
X72390000Y-92650000D02*
X171510000Y-92650000D01*
X71120000Y-95310000D02*
X69790000Y-95310000D01*
X69790000Y-95310000D02*
X69790000Y-93980000D01*
%TO.C,J13*%
X71120000Y-41970000D02*
X69790000Y-41970000D01*
X72390000Y-39310000D02*
X171510000Y-39310000D01*
X72390000Y-41970000D02*
X171510000Y-41970000D01*
X72390000Y-41970000D02*
X72390000Y-39310000D01*
X171510000Y-41970000D02*
X171510000Y-39310000D01*
X69790000Y-41970000D02*
X69790000Y-40640000D01*
%TO.C,J10*%
X48210000Y-81340000D02*
X48210000Y-80010000D01*
X50810000Y-78680000D02*
X58490000Y-78680000D01*
X58490000Y-81340000D02*
X58490000Y-78680000D01*
X49540000Y-81340000D02*
X48210000Y-81340000D01*
X50810000Y-81340000D02*
X58490000Y-81340000D01*
X50810000Y-81340000D02*
X50810000Y-78680000D01*
%TO.C,J3*%
X184150000Y-58480000D02*
X196910000Y-58480000D01*
X182880000Y-58480000D02*
X181550000Y-58480000D01*
X184150000Y-55820000D02*
X196910000Y-55820000D01*
X196910000Y-58480000D02*
X196910000Y-55820000D01*
X181550000Y-58480000D02*
X181550000Y-57150000D01*
X184150000Y-58480000D02*
X184150000Y-55820000D01*
%TO.C,J46*%
X186630000Y-97790000D02*
X189290000Y-97790000D01*
X186630000Y-97850000D02*
X189290000Y-97850000D01*
X186630000Y-95190000D02*
X187960000Y-95190000D01*
X189290000Y-97790000D02*
X189290000Y-97850000D01*
X186630000Y-96520000D02*
X186630000Y-95190000D01*
X186630000Y-97790000D02*
X186630000Y-97850000D01*
%TO.C,J6*%
X196910000Y-92770000D02*
X196910000Y-90110000D01*
X184150000Y-90110000D02*
X196910000Y-90110000D01*
X184150000Y-92770000D02*
X196910000Y-92770000D01*
X181550000Y-92770000D02*
X181550000Y-91440000D01*
X184150000Y-92770000D02*
X184150000Y-90110000D01*
X182880000Y-92770000D02*
X181550000Y-92770000D01*
%TO.C,-*%
X69790000Y-102930000D02*
X69790000Y-101600000D01*
X71120000Y-102930000D02*
X69790000Y-102930000D01*
X171510000Y-102930000D02*
X171510000Y-100270000D01*
X72390000Y-102930000D02*
X171510000Y-102930000D01*
X72390000Y-102930000D02*
X72390000Y-100270000D01*
X72390000Y-100270000D02*
X171510000Y-100270000D01*
%TO.C,J45*%
X191830000Y-86360000D02*
X191830000Y-86420000D01*
X189170000Y-86360000D02*
X189170000Y-86420000D01*
X189170000Y-86360000D02*
X191830000Y-86360000D01*
X189170000Y-83760000D02*
X190500000Y-83760000D01*
X189170000Y-85090000D02*
X189170000Y-83760000D01*
X189170000Y-86420000D02*
X191830000Y-86420000D01*
%TO.C,J36*%
X69795000Y-80070000D02*
X69795000Y-78740000D01*
X71125000Y-80070000D02*
X69795000Y-80070000D01*
X72395000Y-80070000D02*
X72395000Y-77410000D01*
X171515000Y-80070000D02*
X171515000Y-77410000D01*
X72395000Y-77410000D02*
X171515000Y-77410000D01*
X72395000Y-80070000D02*
X171515000Y-80070000D01*
%TO.C,J9*%
X49530000Y-58480000D02*
X48200000Y-58480000D01*
X50800000Y-55820000D02*
X58480000Y-55820000D01*
X58480000Y-58480000D02*
X58480000Y-55820000D01*
X50800000Y-58480000D02*
X58480000Y-58480000D01*
X50800000Y-58480000D02*
X50800000Y-55820000D01*
X48200000Y-58480000D02*
X48200000Y-57150000D01*
%TO.C,J42*%
X189170000Y-50800000D02*
X189170000Y-49470000D01*
X189170000Y-52070000D02*
X189170000Y-52130000D01*
X189170000Y-52130000D02*
X191830000Y-52130000D01*
X191830000Y-52070000D02*
X191830000Y-52130000D01*
X189170000Y-52070000D02*
X191830000Y-52070000D01*
X189170000Y-49470000D02*
X190500000Y-49470000D01*
%TO.C,J5*%
X196910000Y-81340000D02*
X196910000Y-78680000D01*
X184150000Y-81340000D02*
X184150000Y-78680000D01*
X182880000Y-81340000D02*
X181550000Y-81340000D01*
X184150000Y-81340000D02*
X196910000Y-81340000D01*
X184150000Y-78680000D02*
X196910000Y-78680000D01*
X181550000Y-81340000D02*
X181550000Y-80010000D01*
%TO.C,J41*%
X189170000Y-40700000D02*
X191830000Y-40700000D01*
X189170000Y-38040000D02*
X190500000Y-38040000D01*
X189170000Y-39370000D02*
X189170000Y-38040000D01*
X189170000Y-40640000D02*
X191830000Y-40640000D01*
X191830000Y-40640000D02*
X191830000Y-40700000D01*
X189170000Y-40640000D02*
X189170000Y-40700000D01*
%TO.C,J21*%
X71120000Y-72450000D02*
X69790000Y-72450000D01*
X72390000Y-72450000D02*
X171510000Y-72450000D01*
X72390000Y-72450000D02*
X72390000Y-69790000D01*
X69790000Y-72450000D02*
X69790000Y-71120000D01*
X171510000Y-72450000D02*
X171510000Y-69790000D01*
X72390000Y-69790000D02*
X171510000Y-69790000D01*
%TO.C,J30*%
X67250000Y-80010000D02*
X69910000Y-80010000D01*
X67250000Y-77410000D02*
X68580000Y-77410000D01*
X67250000Y-78740000D02*
X67250000Y-77410000D01*
X67250000Y-87690000D02*
X69910000Y-87690000D01*
X67250000Y-80010000D02*
X67250000Y-87690000D01*
X69910000Y-80010000D02*
X69910000Y-87690000D01*
%TO.C,J20*%
X69790000Y-69910000D02*
X69790000Y-68580000D01*
X72390000Y-69910000D02*
X171510000Y-69910000D01*
X171510000Y-69910000D02*
X171510000Y-67250000D01*
X72390000Y-69910000D02*
X72390000Y-67250000D01*
X72390000Y-67250000D02*
X171510000Y-67250000D01*
X71120000Y-69910000D02*
X69790000Y-69910000D01*
%TO.C,J14*%
X69790000Y-44510000D02*
X69790000Y-43180000D01*
X72390000Y-41850000D02*
X171510000Y-41850000D01*
X72390000Y-44510000D02*
X72390000Y-41850000D01*
X72390000Y-44510000D02*
X171510000Y-44510000D01*
X71120000Y-44510000D02*
X69790000Y-44510000D01*
X171510000Y-44510000D02*
X171510000Y-41850000D01*
%TO.C,J4*%
X196910000Y-69910000D02*
X196910000Y-67250000D01*
X181550000Y-69910000D02*
X181550000Y-68580000D01*
X184150000Y-69910000D02*
X196910000Y-69910000D01*
X184150000Y-67250000D02*
X196910000Y-67250000D01*
X182880000Y-69910000D02*
X181550000Y-69910000D01*
X184150000Y-69910000D02*
X184150000Y-67250000D01*
%TO.C,J19*%
X72390000Y-67370000D02*
X171510000Y-67370000D01*
X72390000Y-64710000D02*
X171510000Y-64710000D01*
X171510000Y-67370000D02*
X171510000Y-64710000D01*
X72390000Y-67370000D02*
X72390000Y-64710000D01*
X71120000Y-67370000D02*
X69790000Y-67370000D01*
X69790000Y-67370000D02*
X69790000Y-66040000D01*
%TO.C,J44*%
X189170000Y-72330000D02*
X190500000Y-72330000D01*
X189170000Y-74990000D02*
X191830000Y-74990000D01*
X189170000Y-73660000D02*
X189170000Y-72330000D01*
X189170000Y-74930000D02*
X189170000Y-74990000D01*
X191830000Y-74930000D02*
X191830000Y-74990000D01*
X189170000Y-74930000D02*
X191830000Y-74930000D01*
%TO.C,J18*%
X71120000Y-64830000D02*
X69790000Y-64830000D01*
X69790000Y-64830000D02*
X69790000Y-63500000D01*
X171510000Y-64830000D02*
X171510000Y-62170000D01*
X72390000Y-62170000D02*
X171510000Y-62170000D01*
X72390000Y-64830000D02*
X171510000Y-64830000D01*
X72390000Y-64830000D02*
X72390000Y-62170000D01*
%TO.C,J22*%
X72390000Y-74990000D02*
X72390000Y-72330000D01*
X69790000Y-74990000D02*
X69790000Y-73660000D01*
X72390000Y-74990000D02*
X171510000Y-74990000D01*
X171510000Y-74990000D02*
X171510000Y-72330000D01*
X71120000Y-74990000D02*
X69790000Y-74990000D01*
X72390000Y-72330000D02*
X171510000Y-72330000D01*
%TD*%
M02*
