%TF.GenerationSoftware,KiCad,Pcbnew,(6.0.1)*%
%TF.CreationDate,2022-02-22T20:50:15+13:00*%
%TF.ProjectId,perma-proto-board,7065726d-612d-4707-926f-746f2d626f61,rev?*%
%TF.SameCoordinates,Original*%
%TF.FileFunction,Legend,Top*%
%TF.FilePolarity,Positive*%
%FSLAX46Y46*%
G04 Gerber Fmt 4.6, Leading zero omitted, Abs format (unit mm)*
G04 Created by KiCad (PCBNEW (6.0.1)) date 2022-02-22 20:50:15*
%MOMM*%
%LPD*%
G01*
G04 APERTURE LIST*
%ADD10C,0.150000*%
%ADD11C,0.300000*%
%ADD12C,0.120000*%
G04 APERTURE END LIST*
D10*
X200112380Y-85899047D02*
X200826666Y-85899047D01*
X200969523Y-85946666D01*
X201064761Y-86041904D01*
X201112380Y-86184761D01*
X201112380Y-86280000D01*
X201112380Y-84946666D02*
X201112380Y-85422857D01*
X200112380Y-85422857D01*
X201017142Y-84041904D02*
X201064761Y-84089523D01*
X201112380Y-84232380D01*
X201112380Y-84327619D01*
X201064761Y-84470476D01*
X200969523Y-84565714D01*
X200874285Y-84613333D01*
X200683809Y-84660952D01*
X200540952Y-84660952D01*
X200350476Y-84613333D01*
X200255238Y-84565714D01*
X200160000Y-84470476D01*
X200112380Y-84327619D01*
X200112380Y-84232380D01*
X200160000Y-84089523D01*
X200207619Y-84041904D01*
X200112380Y-83327619D02*
X200826666Y-83327619D01*
X200969523Y-83375238D01*
X201064761Y-83470476D01*
X201112380Y-83613333D01*
X201112380Y-83708571D01*
X201112380Y-82375238D02*
X201112380Y-82851428D01*
X200112380Y-82851428D01*
X201017142Y-81470476D02*
X201064761Y-81518095D01*
X201112380Y-81660952D01*
X201112380Y-81756190D01*
X201064761Y-81899047D01*
X200969523Y-81994285D01*
X200874285Y-82041904D01*
X200683809Y-82089523D01*
X200540952Y-82089523D01*
X200350476Y-82041904D01*
X200255238Y-81994285D01*
X200160000Y-81899047D01*
X200112380Y-81756190D01*
X200112380Y-81660952D01*
X200160000Y-81518095D01*
X200207619Y-81470476D01*
X200112380Y-80756190D02*
X200826666Y-80756190D01*
X200969523Y-80803809D01*
X201064761Y-80899047D01*
X201112380Y-81041904D01*
X201112380Y-81137142D01*
X201112380Y-79803809D02*
X201112380Y-80280000D01*
X200112380Y-80280000D01*
X201017142Y-78899047D02*
X201064761Y-78946666D01*
X201112380Y-79089523D01*
X201112380Y-79184761D01*
X201064761Y-79327619D01*
X200969523Y-79422857D01*
X200874285Y-79470476D01*
X200683809Y-79518095D01*
X200540952Y-79518095D01*
X200350476Y-79470476D01*
X200255238Y-79422857D01*
X200160000Y-79327619D01*
X200112380Y-79184761D01*
X200112380Y-79089523D01*
X200160000Y-78946666D01*
X200207619Y-78899047D01*
X200112380Y-78184761D02*
X200826666Y-78184761D01*
X200969523Y-78232380D01*
X201064761Y-78327619D01*
X201112380Y-78470476D01*
X201112380Y-78565714D01*
X201112380Y-77232380D02*
X201112380Y-77708571D01*
X200112380Y-77708571D01*
X201017142Y-76327619D02*
X201064761Y-76375238D01*
X201112380Y-76518095D01*
X201112380Y-76613333D01*
X201064761Y-76756190D01*
X200969523Y-76851428D01*
X200874285Y-76899047D01*
X200683809Y-76946666D01*
X200540952Y-76946666D01*
X200350476Y-76899047D01*
X200255238Y-76851428D01*
X200160000Y-76756190D01*
X200112380Y-76613333D01*
X200112380Y-76518095D01*
X200160000Y-76375238D01*
X200207619Y-76327619D01*
D11*
X77828571Y-108628571D02*
X77828571Y-107128571D01*
X78471428Y-108628571D02*
X78471428Y-107842857D01*
X78400000Y-107700000D01*
X78257142Y-107628571D01*
X78042857Y-107628571D01*
X77900000Y-107700000D01*
X77828571Y-107771428D01*
X78971428Y-107628571D02*
X79542857Y-107628571D01*
X79185714Y-107128571D02*
X79185714Y-108414285D01*
X79257142Y-108557142D01*
X79400000Y-108628571D01*
X79542857Y-108628571D01*
X79828571Y-107628571D02*
X80400000Y-107628571D01*
X80042857Y-107128571D02*
X80042857Y-108414285D01*
X80114285Y-108557142D01*
X80257142Y-108628571D01*
X80400000Y-108628571D01*
X80900000Y-107628571D02*
X80900000Y-109128571D01*
X80900000Y-107700000D02*
X81042857Y-107628571D01*
X81328571Y-107628571D01*
X81471428Y-107700000D01*
X81542857Y-107771428D01*
X81614285Y-107914285D01*
X81614285Y-108342857D01*
X81542857Y-108485714D01*
X81471428Y-108557142D01*
X81328571Y-108628571D01*
X81042857Y-108628571D01*
X80900000Y-108557142D01*
X82185714Y-108557142D02*
X82328571Y-108628571D01*
X82614285Y-108628571D01*
X82757142Y-108557142D01*
X82828571Y-108414285D01*
X82828571Y-108342857D01*
X82757142Y-108200000D01*
X82614285Y-108128571D01*
X82400000Y-108128571D01*
X82257142Y-108057142D01*
X82185714Y-107914285D01*
X82185714Y-107842857D01*
X82257142Y-107700000D01*
X82400000Y-107628571D01*
X82614285Y-107628571D01*
X82757142Y-107700000D01*
X83471428Y-108485714D02*
X83542857Y-108557142D01*
X83471428Y-108628571D01*
X83400000Y-108557142D01*
X83471428Y-108485714D01*
X83471428Y-108628571D01*
X83471428Y-107700000D02*
X83542857Y-107771428D01*
X83471428Y-107842857D01*
X83400000Y-107771428D01*
X83471428Y-107700000D01*
X83471428Y-107842857D01*
X85257142Y-107057142D02*
X83971428Y-108985714D01*
X86828571Y-107057142D02*
X85542857Y-108985714D01*
X87971428Y-107628571D02*
X87971428Y-108842857D01*
X87900000Y-108985714D01*
X87828571Y-109057142D01*
X87685714Y-109128571D01*
X87471428Y-109128571D01*
X87328571Y-109057142D01*
X87971428Y-108557142D02*
X87828571Y-108628571D01*
X87542857Y-108628571D01*
X87400000Y-108557142D01*
X87328571Y-108485714D01*
X87257142Y-108342857D01*
X87257142Y-107914285D01*
X87328571Y-107771428D01*
X87400000Y-107700000D01*
X87542857Y-107628571D01*
X87828571Y-107628571D01*
X87971428Y-107700000D01*
X88685714Y-108628571D02*
X88685714Y-107628571D01*
X88685714Y-107128571D02*
X88614285Y-107200000D01*
X88685714Y-107271428D01*
X88757142Y-107200000D01*
X88685714Y-107128571D01*
X88685714Y-107271428D01*
X89185714Y-107628571D02*
X89757142Y-107628571D01*
X89400000Y-107128571D02*
X89400000Y-108414285D01*
X89471428Y-108557142D01*
X89614285Y-108628571D01*
X89757142Y-108628571D01*
X90257142Y-108628571D02*
X90257142Y-107128571D01*
X90900000Y-108628571D02*
X90900000Y-107842857D01*
X90828571Y-107700000D01*
X90685714Y-107628571D01*
X90471428Y-107628571D01*
X90328571Y-107700000D01*
X90257142Y-107771428D01*
X92257142Y-107628571D02*
X92257142Y-108628571D01*
X91614285Y-107628571D02*
X91614285Y-108414285D01*
X91685714Y-108557142D01*
X91828571Y-108628571D01*
X92042857Y-108628571D01*
X92185714Y-108557142D01*
X92257142Y-108485714D01*
X92971428Y-108628571D02*
X92971428Y-107128571D01*
X92971428Y-107700000D02*
X93114285Y-107628571D01*
X93400000Y-107628571D01*
X93542857Y-107700000D01*
X93614285Y-107771428D01*
X93685714Y-107914285D01*
X93685714Y-108342857D01*
X93614285Y-108485714D01*
X93542857Y-108557142D01*
X93400000Y-108628571D01*
X93114285Y-108628571D01*
X92971428Y-108557142D01*
X94328571Y-108485714D02*
X94400000Y-108557142D01*
X94328571Y-108628571D01*
X94257142Y-108557142D01*
X94328571Y-108485714D01*
X94328571Y-108628571D01*
X95685714Y-108557142D02*
X95542857Y-108628571D01*
X95257142Y-108628571D01*
X95114285Y-108557142D01*
X95042857Y-108485714D01*
X94971428Y-108342857D01*
X94971428Y-107914285D01*
X95042857Y-107771428D01*
X95114285Y-107700000D01*
X95257142Y-107628571D01*
X95542857Y-107628571D01*
X95685714Y-107700000D01*
X96542857Y-108628571D02*
X96400000Y-108557142D01*
X96328571Y-108485714D01*
X96257142Y-108342857D01*
X96257142Y-107914285D01*
X96328571Y-107771428D01*
X96400000Y-107700000D01*
X96542857Y-107628571D01*
X96757142Y-107628571D01*
X96900000Y-107700000D01*
X96971428Y-107771428D01*
X97042857Y-107914285D01*
X97042857Y-108342857D01*
X96971428Y-108485714D01*
X96900000Y-108557142D01*
X96757142Y-108628571D01*
X96542857Y-108628571D01*
X97685714Y-108628571D02*
X97685714Y-107628571D01*
X97685714Y-107771428D02*
X97757142Y-107700000D01*
X97900000Y-107628571D01*
X98114285Y-107628571D01*
X98257142Y-107700000D01*
X98328571Y-107842857D01*
X98328571Y-108628571D01*
X98328571Y-107842857D02*
X98400000Y-107700000D01*
X98542857Y-107628571D01*
X98757142Y-107628571D01*
X98900000Y-107700000D01*
X98971428Y-107842857D01*
X98971428Y-108628571D01*
X100757142Y-107057142D02*
X99471428Y-108985714D01*
X101900000Y-108557142D02*
X101757142Y-108628571D01*
X101471428Y-108628571D01*
X101328571Y-108557142D01*
X101257142Y-108485714D01*
X101185714Y-108342857D01*
X101185714Y-107914285D01*
X101257142Y-107771428D01*
X101328571Y-107700000D01*
X101471428Y-107628571D01*
X101757142Y-107628571D01*
X101900000Y-107700000D01*
X102542857Y-108628571D02*
X102542857Y-107628571D01*
X102542857Y-107128571D02*
X102471428Y-107200000D01*
X102542857Y-107271428D01*
X102614285Y-107200000D01*
X102542857Y-107128571D01*
X102542857Y-107271428D01*
X103042857Y-107628571D02*
X103614285Y-107628571D01*
X103257142Y-107128571D02*
X103257142Y-108414285D01*
X103328571Y-108557142D01*
X103471428Y-108628571D01*
X103614285Y-108628571D01*
X104114285Y-108628571D02*
X104114285Y-107628571D01*
X104114285Y-107128571D02*
X104042857Y-107200000D01*
X104114285Y-107271428D01*
X104185714Y-107200000D01*
X104114285Y-107128571D01*
X104114285Y-107271428D01*
X104685714Y-107628571D02*
X105471428Y-107628571D01*
X104685714Y-108628571D01*
X105471428Y-108628571D01*
X106614285Y-108557142D02*
X106471428Y-108628571D01*
X106185714Y-108628571D01*
X106042857Y-108557142D01*
X105971428Y-108414285D01*
X105971428Y-107842857D01*
X106042857Y-107700000D01*
X106185714Y-107628571D01*
X106471428Y-107628571D01*
X106614285Y-107700000D01*
X106685714Y-107842857D01*
X106685714Y-107985714D01*
X105971428Y-108128571D01*
X107328571Y-107628571D02*
X107328571Y-108628571D01*
X107328571Y-107771428D02*
X107400000Y-107700000D01*
X107542857Y-107628571D01*
X107757142Y-107628571D01*
X107900000Y-107700000D01*
X107971428Y-107842857D01*
X107971428Y-108628571D01*
X108685714Y-108057142D02*
X109828571Y-108057142D01*
X110471428Y-108557142D02*
X110614285Y-108628571D01*
X110900000Y-108628571D01*
X111042857Y-108557142D01*
X111114285Y-108414285D01*
X111114285Y-108342857D01*
X111042857Y-108200000D01*
X110900000Y-108128571D01*
X110685714Y-108128571D01*
X110542857Y-108057142D01*
X110471428Y-107914285D01*
X110471428Y-107842857D01*
X110542857Y-107700000D01*
X110685714Y-107628571D01*
X110900000Y-107628571D01*
X111042857Y-107700000D01*
X112400000Y-108557142D02*
X112257142Y-108628571D01*
X111971428Y-108628571D01*
X111828571Y-108557142D01*
X111757142Y-108485714D01*
X111685714Y-108342857D01*
X111685714Y-107914285D01*
X111757142Y-107771428D01*
X111828571Y-107700000D01*
X111971428Y-107628571D01*
X112257142Y-107628571D01*
X112400000Y-107700000D01*
X113042857Y-108628571D02*
X113042857Y-107628571D01*
X113042857Y-107128571D02*
X112971428Y-107200000D01*
X113042857Y-107271428D01*
X113114285Y-107200000D01*
X113042857Y-107128571D01*
X113042857Y-107271428D01*
X114328571Y-108557142D02*
X114185714Y-108628571D01*
X113900000Y-108628571D01*
X113757142Y-108557142D01*
X113685714Y-108414285D01*
X113685714Y-107842857D01*
X113757142Y-107700000D01*
X113900000Y-107628571D01*
X114185714Y-107628571D01*
X114328571Y-107700000D01*
X114400000Y-107842857D01*
X114400000Y-107985714D01*
X113685714Y-108128571D01*
X115042857Y-107628571D02*
X115042857Y-108628571D01*
X115042857Y-107771428D02*
X115114285Y-107700000D01*
X115257142Y-107628571D01*
X115471428Y-107628571D01*
X115614285Y-107700000D01*
X115685714Y-107842857D01*
X115685714Y-108628571D01*
X117042857Y-108557142D02*
X116900000Y-108628571D01*
X116614285Y-108628571D01*
X116471428Y-108557142D01*
X116400000Y-108485714D01*
X116328571Y-108342857D01*
X116328571Y-107914285D01*
X116400000Y-107771428D01*
X116471428Y-107700000D01*
X116614285Y-107628571D01*
X116900000Y-107628571D01*
X117042857Y-107700000D01*
X118257142Y-108557142D02*
X118114285Y-108628571D01*
X117828571Y-108628571D01*
X117685714Y-108557142D01*
X117614285Y-108414285D01*
X117614285Y-107842857D01*
X117685714Y-107700000D01*
X117828571Y-107628571D01*
X118114285Y-107628571D01*
X118257142Y-107700000D01*
X118328571Y-107842857D01*
X118328571Y-107985714D01*
X117614285Y-108128571D01*
X118971428Y-108057142D02*
X120114285Y-108057142D01*
X121471428Y-108628571D02*
X121471428Y-107842857D01*
X121399999Y-107700000D01*
X121257142Y-107628571D01*
X120971428Y-107628571D01*
X120828571Y-107700000D01*
X121471428Y-108557142D02*
X121328571Y-108628571D01*
X120971428Y-108628571D01*
X120828571Y-108557142D01*
X120757142Y-108414285D01*
X120757142Y-108271428D01*
X120828571Y-108128571D01*
X120971428Y-108057142D01*
X121328571Y-108057142D01*
X121471428Y-107985714D01*
X122185714Y-107628571D02*
X122185714Y-108628571D01*
X122185714Y-107771428D02*
X122257142Y-107700000D01*
X122400000Y-107628571D01*
X122614285Y-107628571D01*
X122757142Y-107700000D01*
X122828571Y-107842857D01*
X122828571Y-108628571D01*
X124185714Y-108628571D02*
X124185714Y-107128571D01*
X124185714Y-108557142D02*
X124042857Y-108628571D01*
X123757142Y-108628571D01*
X123614285Y-108557142D01*
X123542857Y-108485714D01*
X123471428Y-108342857D01*
X123471428Y-107914285D01*
X123542857Y-107771428D01*
X123614285Y-107700000D01*
X123757142Y-107628571D01*
X124042857Y-107628571D01*
X124185714Y-107700000D01*
X124900000Y-108057142D02*
X126042857Y-108057142D01*
X127328571Y-108557142D02*
X127185714Y-108628571D01*
X126900000Y-108628571D01*
X126757142Y-108557142D01*
X126685714Y-108414285D01*
X126685714Y-107842857D01*
X126757142Y-107700000D01*
X126900000Y-107628571D01*
X127185714Y-107628571D01*
X127328571Y-107700000D01*
X127400000Y-107842857D01*
X127400000Y-107985714D01*
X126685714Y-108128571D01*
X128042857Y-107628571D02*
X128042857Y-108628571D01*
X128042857Y-107771428D02*
X128114285Y-107700000D01*
X128257142Y-107628571D01*
X128471428Y-107628571D01*
X128614285Y-107700000D01*
X128685714Y-107842857D01*
X128685714Y-108628571D01*
X130042857Y-107628571D02*
X130042857Y-108842857D01*
X129971428Y-108985714D01*
X129900000Y-109057142D01*
X129757142Y-109128571D01*
X129542857Y-109128571D01*
X129400000Y-109057142D01*
X130042857Y-108557142D02*
X129900000Y-108628571D01*
X129614285Y-108628571D01*
X129471428Y-108557142D01*
X129400000Y-108485714D01*
X129328571Y-108342857D01*
X129328571Y-107914285D01*
X129400000Y-107771428D01*
X129471428Y-107700000D01*
X129614285Y-107628571D01*
X129900000Y-107628571D01*
X130042857Y-107700000D01*
X130757142Y-108628571D02*
X130757142Y-107628571D01*
X130757142Y-107128571D02*
X130685714Y-107200000D01*
X130757142Y-107271428D01*
X130828571Y-107200000D01*
X130757142Y-107128571D01*
X130757142Y-107271428D01*
X131471428Y-107628571D02*
X131471428Y-108628571D01*
X131471428Y-107771428D02*
X131542857Y-107700000D01*
X131685714Y-107628571D01*
X131900000Y-107628571D01*
X132042857Y-107700000D01*
X132114285Y-107842857D01*
X132114285Y-108628571D01*
X133400000Y-108557142D02*
X133257142Y-108628571D01*
X132971428Y-108628571D01*
X132828571Y-108557142D01*
X132757142Y-108414285D01*
X132757142Y-107842857D01*
X132828571Y-107700000D01*
X132971428Y-107628571D01*
X133257142Y-107628571D01*
X133400000Y-107700000D01*
X133471428Y-107842857D01*
X133471428Y-107985714D01*
X132757142Y-108128571D01*
X134685714Y-108557142D02*
X134542857Y-108628571D01*
X134257142Y-108628571D01*
X134114285Y-108557142D01*
X134042857Y-108414285D01*
X134042857Y-107842857D01*
X134114285Y-107700000D01*
X134257142Y-107628571D01*
X134542857Y-107628571D01*
X134685714Y-107700000D01*
X134757142Y-107842857D01*
X134757142Y-107985714D01*
X134042857Y-108128571D01*
X135400000Y-108628571D02*
X135400000Y-107628571D01*
X135400000Y-107914285D02*
X135471428Y-107771428D01*
X135542857Y-107700000D01*
X135685714Y-107628571D01*
X135828571Y-107628571D01*
X136328571Y-108628571D02*
X136328571Y-107628571D01*
X136328571Y-107128571D02*
X136257142Y-107200000D01*
X136328571Y-107271428D01*
X136400000Y-107200000D01*
X136328571Y-107128571D01*
X136328571Y-107271428D01*
X137042857Y-107628571D02*
X137042857Y-108628571D01*
X137042857Y-107771428D02*
X137114285Y-107700000D01*
X137257142Y-107628571D01*
X137471428Y-107628571D01*
X137614285Y-107700000D01*
X137685714Y-107842857D01*
X137685714Y-108628571D01*
X139042857Y-107628571D02*
X139042857Y-108842857D01*
X138971428Y-108985714D01*
X138900000Y-109057142D01*
X138757142Y-109128571D01*
X138542857Y-109128571D01*
X138400000Y-109057142D01*
X139042857Y-108557142D02*
X138900000Y-108628571D01*
X138614285Y-108628571D01*
X138471428Y-108557142D01*
X138400000Y-108485714D01*
X138328571Y-108342857D01*
X138328571Y-107914285D01*
X138400000Y-107771428D01*
X138471428Y-107700000D01*
X138614285Y-107628571D01*
X138900000Y-107628571D01*
X139042857Y-107700000D01*
X140828571Y-107057142D02*
X139542857Y-108985714D01*
X141328571Y-107628571D02*
X141328571Y-109128571D01*
X141328571Y-107700000D02*
X141471428Y-107628571D01*
X141757142Y-107628571D01*
X141900000Y-107700000D01*
X141971428Y-107771428D01*
X142042857Y-107914285D01*
X142042857Y-108342857D01*
X141971428Y-108485714D01*
X141900000Y-108557142D01*
X141757142Y-108628571D01*
X141471428Y-108628571D01*
X141328571Y-108557142D01*
X143257142Y-108557142D02*
X143114285Y-108628571D01*
X142828571Y-108628571D01*
X142685714Y-108557142D01*
X142614285Y-108414285D01*
X142614285Y-107842857D01*
X142685714Y-107700000D01*
X142828571Y-107628571D01*
X143114285Y-107628571D01*
X143257142Y-107700000D01*
X143328571Y-107842857D01*
X143328571Y-107985714D01*
X142614285Y-108128571D01*
X143971428Y-108628571D02*
X143971428Y-107628571D01*
X143971428Y-107914285D02*
X144042857Y-107771428D01*
X144114285Y-107700000D01*
X144257142Y-107628571D01*
X144400000Y-107628571D01*
X144900000Y-108628571D02*
X144900000Y-107628571D01*
X144900000Y-107771428D02*
X144971428Y-107700000D01*
X145114285Y-107628571D01*
X145328571Y-107628571D01*
X145471428Y-107700000D01*
X145542857Y-107842857D01*
X145542857Y-108628571D01*
X145542857Y-107842857D02*
X145614285Y-107700000D01*
X145757142Y-107628571D01*
X145971428Y-107628571D01*
X146114285Y-107700000D01*
X146185714Y-107842857D01*
X146185714Y-108628571D01*
X147542857Y-108628571D02*
X147542857Y-107842857D01*
X147471428Y-107700000D01*
X147328571Y-107628571D01*
X147042857Y-107628571D01*
X146900000Y-107700000D01*
X147542857Y-108557142D02*
X147400000Y-108628571D01*
X147042857Y-108628571D01*
X146900000Y-108557142D01*
X146828571Y-108414285D01*
X146828571Y-108271428D01*
X146900000Y-108128571D01*
X147042857Y-108057142D01*
X147400000Y-108057142D01*
X147542857Y-107985714D01*
X148257142Y-108057142D02*
X149400000Y-108057142D01*
X150114285Y-107628571D02*
X150114285Y-109128571D01*
X150114285Y-107700000D02*
X150257142Y-107628571D01*
X150542857Y-107628571D01*
X150685714Y-107700000D01*
X150757142Y-107771428D01*
X150828571Y-107914285D01*
X150828571Y-108342857D01*
X150757142Y-108485714D01*
X150685714Y-108557142D01*
X150542857Y-108628571D01*
X150257142Y-108628571D01*
X150114285Y-108557142D01*
X151471428Y-108628571D02*
X151471428Y-107628571D01*
X151471428Y-107914285D02*
X151542857Y-107771428D01*
X151614285Y-107700000D01*
X151757142Y-107628571D01*
X151899999Y-107628571D01*
X152614285Y-108628571D02*
X152471428Y-108557142D01*
X152399999Y-108485714D01*
X152328571Y-108342857D01*
X152328571Y-107914285D01*
X152399999Y-107771428D01*
X152471428Y-107700000D01*
X152614285Y-107628571D01*
X152828571Y-107628571D01*
X152971428Y-107700000D01*
X153042857Y-107771428D01*
X153114285Y-107914285D01*
X153114285Y-108342857D01*
X153042857Y-108485714D01*
X152971428Y-108557142D01*
X152828571Y-108628571D01*
X152614285Y-108628571D01*
X153542857Y-107628571D02*
X154114285Y-107628571D01*
X153757142Y-107128571D02*
X153757142Y-108414285D01*
X153828571Y-108557142D01*
X153971428Y-108628571D01*
X154114285Y-108628571D01*
X154828571Y-108628571D02*
X154685714Y-108557142D01*
X154614285Y-108485714D01*
X154542857Y-108342857D01*
X154542857Y-107914285D01*
X154614285Y-107771428D01*
X154685714Y-107700000D01*
X154828571Y-107628571D01*
X155042857Y-107628571D01*
X155185714Y-107700000D01*
X155257142Y-107771428D01*
X155328571Y-107914285D01*
X155328571Y-108342857D01*
X155257142Y-108485714D01*
X155185714Y-108557142D01*
X155042857Y-108628571D01*
X154828571Y-108628571D01*
X155971428Y-108057142D02*
X157114285Y-108057142D01*
X157828571Y-108628571D02*
X157828571Y-107128571D01*
X157828571Y-107700000D02*
X157971428Y-107628571D01*
X158257142Y-107628571D01*
X158399999Y-107700000D01*
X158471428Y-107771428D01*
X158542857Y-107914285D01*
X158542857Y-108342857D01*
X158471428Y-108485714D01*
X158399999Y-108557142D01*
X158257142Y-108628571D01*
X157971428Y-108628571D01*
X157828571Y-108557142D01*
X159399999Y-108628571D02*
X159257142Y-108557142D01*
X159185714Y-108485714D01*
X159114285Y-108342857D01*
X159114285Y-107914285D01*
X159185714Y-107771428D01*
X159257142Y-107700000D01*
X159399999Y-107628571D01*
X159614285Y-107628571D01*
X159757142Y-107700000D01*
X159828571Y-107771428D01*
X159899999Y-107914285D01*
X159899999Y-108342857D01*
X159828571Y-108485714D01*
X159757142Y-108557142D01*
X159614285Y-108628571D01*
X159399999Y-108628571D01*
X161185714Y-108628571D02*
X161185714Y-107842857D01*
X161114285Y-107700000D01*
X160971428Y-107628571D01*
X160685714Y-107628571D01*
X160542857Y-107700000D01*
X161185714Y-108557142D02*
X161042857Y-108628571D01*
X160685714Y-108628571D01*
X160542857Y-108557142D01*
X160471428Y-108414285D01*
X160471428Y-108271428D01*
X160542857Y-108128571D01*
X160685714Y-108057142D01*
X161042857Y-108057142D01*
X161185714Y-107985714D01*
X161899999Y-108628571D02*
X161899999Y-107628571D01*
X161899999Y-107914285D02*
X161971428Y-107771428D01*
X162042857Y-107700000D01*
X162185714Y-107628571D01*
X162328571Y-107628571D01*
X163471428Y-108628571D02*
X163471428Y-107128571D01*
X163471428Y-108557142D02*
X163328571Y-108628571D01*
X163042857Y-108628571D01*
X162899999Y-108557142D01*
X162828571Y-108485714D01*
X162757142Y-108342857D01*
X162757142Y-107914285D01*
X162828571Y-107771428D01*
X162899999Y-107700000D01*
X163042857Y-107628571D01*
X163328571Y-107628571D01*
X163471428Y-107700000D01*
X77828571Y-29888571D02*
X77828571Y-28388571D01*
X78471428Y-29888571D02*
X78471428Y-29102857D01*
X78400000Y-28960000D01*
X78257142Y-28888571D01*
X78042857Y-28888571D01*
X77900000Y-28960000D01*
X77828571Y-29031428D01*
X78971428Y-28888571D02*
X79542857Y-28888571D01*
X79185714Y-28388571D02*
X79185714Y-29674285D01*
X79257142Y-29817142D01*
X79400000Y-29888571D01*
X79542857Y-29888571D01*
X79828571Y-28888571D02*
X80400000Y-28888571D01*
X80042857Y-28388571D02*
X80042857Y-29674285D01*
X80114285Y-29817142D01*
X80257142Y-29888571D01*
X80400000Y-29888571D01*
X80900000Y-28888571D02*
X80900000Y-30388571D01*
X80900000Y-28960000D02*
X81042857Y-28888571D01*
X81328571Y-28888571D01*
X81471428Y-28960000D01*
X81542857Y-29031428D01*
X81614285Y-29174285D01*
X81614285Y-29602857D01*
X81542857Y-29745714D01*
X81471428Y-29817142D01*
X81328571Y-29888571D01*
X81042857Y-29888571D01*
X80900000Y-29817142D01*
X82185714Y-29817142D02*
X82328571Y-29888571D01*
X82614285Y-29888571D01*
X82757142Y-29817142D01*
X82828571Y-29674285D01*
X82828571Y-29602857D01*
X82757142Y-29460000D01*
X82614285Y-29388571D01*
X82400000Y-29388571D01*
X82257142Y-29317142D01*
X82185714Y-29174285D01*
X82185714Y-29102857D01*
X82257142Y-28960000D01*
X82400000Y-28888571D01*
X82614285Y-28888571D01*
X82757142Y-28960000D01*
X83471428Y-29745714D02*
X83542857Y-29817142D01*
X83471428Y-29888571D01*
X83400000Y-29817142D01*
X83471428Y-29745714D01*
X83471428Y-29888571D01*
X83471428Y-28960000D02*
X83542857Y-29031428D01*
X83471428Y-29102857D01*
X83400000Y-29031428D01*
X83471428Y-28960000D01*
X83471428Y-29102857D01*
X85257142Y-28317142D02*
X83971428Y-30245714D01*
X86828571Y-28317142D02*
X85542857Y-30245714D01*
X87971428Y-28888571D02*
X87971428Y-30102857D01*
X87900000Y-30245714D01*
X87828571Y-30317142D01*
X87685714Y-30388571D01*
X87471428Y-30388571D01*
X87328571Y-30317142D01*
X87971428Y-29817142D02*
X87828571Y-29888571D01*
X87542857Y-29888571D01*
X87400000Y-29817142D01*
X87328571Y-29745714D01*
X87257142Y-29602857D01*
X87257142Y-29174285D01*
X87328571Y-29031428D01*
X87400000Y-28960000D01*
X87542857Y-28888571D01*
X87828571Y-28888571D01*
X87971428Y-28960000D01*
X88685714Y-29888571D02*
X88685714Y-28888571D01*
X88685714Y-28388571D02*
X88614285Y-28460000D01*
X88685714Y-28531428D01*
X88757142Y-28460000D01*
X88685714Y-28388571D01*
X88685714Y-28531428D01*
X89185714Y-28888571D02*
X89757142Y-28888571D01*
X89400000Y-28388571D02*
X89400000Y-29674285D01*
X89471428Y-29817142D01*
X89614285Y-29888571D01*
X89757142Y-29888571D01*
X90257142Y-29888571D02*
X90257142Y-28388571D01*
X90900000Y-29888571D02*
X90900000Y-29102857D01*
X90828571Y-28960000D01*
X90685714Y-28888571D01*
X90471428Y-28888571D01*
X90328571Y-28960000D01*
X90257142Y-29031428D01*
X92257142Y-28888571D02*
X92257142Y-29888571D01*
X91614285Y-28888571D02*
X91614285Y-29674285D01*
X91685714Y-29817142D01*
X91828571Y-29888571D01*
X92042857Y-29888571D01*
X92185714Y-29817142D01*
X92257142Y-29745714D01*
X92971428Y-29888571D02*
X92971428Y-28388571D01*
X92971428Y-28960000D02*
X93114285Y-28888571D01*
X93400000Y-28888571D01*
X93542857Y-28960000D01*
X93614285Y-29031428D01*
X93685714Y-29174285D01*
X93685714Y-29602857D01*
X93614285Y-29745714D01*
X93542857Y-29817142D01*
X93400000Y-29888571D01*
X93114285Y-29888571D01*
X92971428Y-29817142D01*
X94328571Y-29745714D02*
X94400000Y-29817142D01*
X94328571Y-29888571D01*
X94257142Y-29817142D01*
X94328571Y-29745714D01*
X94328571Y-29888571D01*
X95685714Y-29817142D02*
X95542857Y-29888571D01*
X95257142Y-29888571D01*
X95114285Y-29817142D01*
X95042857Y-29745714D01*
X94971428Y-29602857D01*
X94971428Y-29174285D01*
X95042857Y-29031428D01*
X95114285Y-28960000D01*
X95257142Y-28888571D01*
X95542857Y-28888571D01*
X95685714Y-28960000D01*
X96542857Y-29888571D02*
X96400000Y-29817142D01*
X96328571Y-29745714D01*
X96257142Y-29602857D01*
X96257142Y-29174285D01*
X96328571Y-29031428D01*
X96400000Y-28960000D01*
X96542857Y-28888571D01*
X96757142Y-28888571D01*
X96900000Y-28960000D01*
X96971428Y-29031428D01*
X97042857Y-29174285D01*
X97042857Y-29602857D01*
X96971428Y-29745714D01*
X96900000Y-29817142D01*
X96757142Y-29888571D01*
X96542857Y-29888571D01*
X97685714Y-29888571D02*
X97685714Y-28888571D01*
X97685714Y-29031428D02*
X97757142Y-28960000D01*
X97900000Y-28888571D01*
X98114285Y-28888571D01*
X98257142Y-28960000D01*
X98328571Y-29102857D01*
X98328571Y-29888571D01*
X98328571Y-29102857D02*
X98400000Y-28960000D01*
X98542857Y-28888571D01*
X98757142Y-28888571D01*
X98900000Y-28960000D01*
X98971428Y-29102857D01*
X98971428Y-29888571D01*
X100757142Y-28317142D02*
X99471428Y-30245714D01*
X101900000Y-29817142D02*
X101757142Y-29888571D01*
X101471428Y-29888571D01*
X101328571Y-29817142D01*
X101257142Y-29745714D01*
X101185714Y-29602857D01*
X101185714Y-29174285D01*
X101257142Y-29031428D01*
X101328571Y-28960000D01*
X101471428Y-28888571D01*
X101757142Y-28888571D01*
X101900000Y-28960000D01*
X102542857Y-29888571D02*
X102542857Y-28888571D01*
X102542857Y-28388571D02*
X102471428Y-28460000D01*
X102542857Y-28531428D01*
X102614285Y-28460000D01*
X102542857Y-28388571D01*
X102542857Y-28531428D01*
X103042857Y-28888571D02*
X103614285Y-28888571D01*
X103257142Y-28388571D02*
X103257142Y-29674285D01*
X103328571Y-29817142D01*
X103471428Y-29888571D01*
X103614285Y-29888571D01*
X104114285Y-29888571D02*
X104114285Y-28888571D01*
X104114285Y-28388571D02*
X104042857Y-28460000D01*
X104114285Y-28531428D01*
X104185714Y-28460000D01*
X104114285Y-28388571D01*
X104114285Y-28531428D01*
X104685714Y-28888571D02*
X105471428Y-28888571D01*
X104685714Y-29888571D01*
X105471428Y-29888571D01*
X106614285Y-29817142D02*
X106471428Y-29888571D01*
X106185714Y-29888571D01*
X106042857Y-29817142D01*
X105971428Y-29674285D01*
X105971428Y-29102857D01*
X106042857Y-28960000D01*
X106185714Y-28888571D01*
X106471428Y-28888571D01*
X106614285Y-28960000D01*
X106685714Y-29102857D01*
X106685714Y-29245714D01*
X105971428Y-29388571D01*
X107328571Y-28888571D02*
X107328571Y-29888571D01*
X107328571Y-29031428D02*
X107400000Y-28960000D01*
X107542857Y-28888571D01*
X107757142Y-28888571D01*
X107900000Y-28960000D01*
X107971428Y-29102857D01*
X107971428Y-29888571D01*
X108685714Y-29317142D02*
X109828571Y-29317142D01*
X110471428Y-29817142D02*
X110614285Y-29888571D01*
X110900000Y-29888571D01*
X111042857Y-29817142D01*
X111114285Y-29674285D01*
X111114285Y-29602857D01*
X111042857Y-29460000D01*
X110900000Y-29388571D01*
X110685714Y-29388571D01*
X110542857Y-29317142D01*
X110471428Y-29174285D01*
X110471428Y-29102857D01*
X110542857Y-28960000D01*
X110685714Y-28888571D01*
X110900000Y-28888571D01*
X111042857Y-28960000D01*
X112400000Y-29817142D02*
X112257142Y-29888571D01*
X111971428Y-29888571D01*
X111828571Y-29817142D01*
X111757142Y-29745714D01*
X111685714Y-29602857D01*
X111685714Y-29174285D01*
X111757142Y-29031428D01*
X111828571Y-28960000D01*
X111971428Y-28888571D01*
X112257142Y-28888571D01*
X112400000Y-28960000D01*
X113042857Y-29888571D02*
X113042857Y-28888571D01*
X113042857Y-28388571D02*
X112971428Y-28460000D01*
X113042857Y-28531428D01*
X113114285Y-28460000D01*
X113042857Y-28388571D01*
X113042857Y-28531428D01*
X114328571Y-29817142D02*
X114185714Y-29888571D01*
X113900000Y-29888571D01*
X113757142Y-29817142D01*
X113685714Y-29674285D01*
X113685714Y-29102857D01*
X113757142Y-28960000D01*
X113900000Y-28888571D01*
X114185714Y-28888571D01*
X114328571Y-28960000D01*
X114400000Y-29102857D01*
X114400000Y-29245714D01*
X113685714Y-29388571D01*
X115042857Y-28888571D02*
X115042857Y-29888571D01*
X115042857Y-29031428D02*
X115114285Y-28960000D01*
X115257142Y-28888571D01*
X115471428Y-28888571D01*
X115614285Y-28960000D01*
X115685714Y-29102857D01*
X115685714Y-29888571D01*
X117042857Y-29817142D02*
X116900000Y-29888571D01*
X116614285Y-29888571D01*
X116471428Y-29817142D01*
X116400000Y-29745714D01*
X116328571Y-29602857D01*
X116328571Y-29174285D01*
X116400000Y-29031428D01*
X116471428Y-28960000D01*
X116614285Y-28888571D01*
X116900000Y-28888571D01*
X117042857Y-28960000D01*
X118257142Y-29817142D02*
X118114285Y-29888571D01*
X117828571Y-29888571D01*
X117685714Y-29817142D01*
X117614285Y-29674285D01*
X117614285Y-29102857D01*
X117685714Y-28960000D01*
X117828571Y-28888571D01*
X118114285Y-28888571D01*
X118257142Y-28960000D01*
X118328571Y-29102857D01*
X118328571Y-29245714D01*
X117614285Y-29388571D01*
X118971428Y-29317142D02*
X120114285Y-29317142D01*
X121471428Y-29888571D02*
X121471428Y-29102857D01*
X121399999Y-28960000D01*
X121257142Y-28888571D01*
X120971428Y-28888571D01*
X120828571Y-28960000D01*
X121471428Y-29817142D02*
X121328571Y-29888571D01*
X120971428Y-29888571D01*
X120828571Y-29817142D01*
X120757142Y-29674285D01*
X120757142Y-29531428D01*
X120828571Y-29388571D01*
X120971428Y-29317142D01*
X121328571Y-29317142D01*
X121471428Y-29245714D01*
X122185714Y-28888571D02*
X122185714Y-29888571D01*
X122185714Y-29031428D02*
X122257142Y-28960000D01*
X122400000Y-28888571D01*
X122614285Y-28888571D01*
X122757142Y-28960000D01*
X122828571Y-29102857D01*
X122828571Y-29888571D01*
X124185714Y-29888571D02*
X124185714Y-28388571D01*
X124185714Y-29817142D02*
X124042857Y-29888571D01*
X123757142Y-29888571D01*
X123614285Y-29817142D01*
X123542857Y-29745714D01*
X123471428Y-29602857D01*
X123471428Y-29174285D01*
X123542857Y-29031428D01*
X123614285Y-28960000D01*
X123757142Y-28888571D01*
X124042857Y-28888571D01*
X124185714Y-28960000D01*
X124900000Y-29317142D02*
X126042857Y-29317142D01*
X127328571Y-29817142D02*
X127185714Y-29888571D01*
X126900000Y-29888571D01*
X126757142Y-29817142D01*
X126685714Y-29674285D01*
X126685714Y-29102857D01*
X126757142Y-28960000D01*
X126900000Y-28888571D01*
X127185714Y-28888571D01*
X127328571Y-28960000D01*
X127400000Y-29102857D01*
X127400000Y-29245714D01*
X126685714Y-29388571D01*
X128042857Y-28888571D02*
X128042857Y-29888571D01*
X128042857Y-29031428D02*
X128114285Y-28960000D01*
X128257142Y-28888571D01*
X128471428Y-28888571D01*
X128614285Y-28960000D01*
X128685714Y-29102857D01*
X128685714Y-29888571D01*
X130042857Y-28888571D02*
X130042857Y-30102857D01*
X129971428Y-30245714D01*
X129900000Y-30317142D01*
X129757142Y-30388571D01*
X129542857Y-30388571D01*
X129400000Y-30317142D01*
X130042857Y-29817142D02*
X129900000Y-29888571D01*
X129614285Y-29888571D01*
X129471428Y-29817142D01*
X129400000Y-29745714D01*
X129328571Y-29602857D01*
X129328571Y-29174285D01*
X129400000Y-29031428D01*
X129471428Y-28960000D01*
X129614285Y-28888571D01*
X129900000Y-28888571D01*
X130042857Y-28960000D01*
X130757142Y-29888571D02*
X130757142Y-28888571D01*
X130757142Y-28388571D02*
X130685714Y-28460000D01*
X130757142Y-28531428D01*
X130828571Y-28460000D01*
X130757142Y-28388571D01*
X130757142Y-28531428D01*
X131471428Y-28888571D02*
X131471428Y-29888571D01*
X131471428Y-29031428D02*
X131542857Y-28960000D01*
X131685714Y-28888571D01*
X131900000Y-28888571D01*
X132042857Y-28960000D01*
X132114285Y-29102857D01*
X132114285Y-29888571D01*
X133400000Y-29817142D02*
X133257142Y-29888571D01*
X132971428Y-29888571D01*
X132828571Y-29817142D01*
X132757142Y-29674285D01*
X132757142Y-29102857D01*
X132828571Y-28960000D01*
X132971428Y-28888571D01*
X133257142Y-28888571D01*
X133400000Y-28960000D01*
X133471428Y-29102857D01*
X133471428Y-29245714D01*
X132757142Y-29388571D01*
X134685714Y-29817142D02*
X134542857Y-29888571D01*
X134257142Y-29888571D01*
X134114285Y-29817142D01*
X134042857Y-29674285D01*
X134042857Y-29102857D01*
X134114285Y-28960000D01*
X134257142Y-28888571D01*
X134542857Y-28888571D01*
X134685714Y-28960000D01*
X134757142Y-29102857D01*
X134757142Y-29245714D01*
X134042857Y-29388571D01*
X135400000Y-29888571D02*
X135400000Y-28888571D01*
X135400000Y-29174285D02*
X135471428Y-29031428D01*
X135542857Y-28960000D01*
X135685714Y-28888571D01*
X135828571Y-28888571D01*
X136328571Y-29888571D02*
X136328571Y-28888571D01*
X136328571Y-28388571D02*
X136257142Y-28460000D01*
X136328571Y-28531428D01*
X136400000Y-28460000D01*
X136328571Y-28388571D01*
X136328571Y-28531428D01*
X137042857Y-28888571D02*
X137042857Y-29888571D01*
X137042857Y-29031428D02*
X137114285Y-28960000D01*
X137257142Y-28888571D01*
X137471428Y-28888571D01*
X137614285Y-28960000D01*
X137685714Y-29102857D01*
X137685714Y-29888571D01*
X139042857Y-28888571D02*
X139042857Y-30102857D01*
X138971428Y-30245714D01*
X138900000Y-30317142D01*
X138757142Y-30388571D01*
X138542857Y-30388571D01*
X138400000Y-30317142D01*
X139042857Y-29817142D02*
X138900000Y-29888571D01*
X138614285Y-29888571D01*
X138471428Y-29817142D01*
X138400000Y-29745714D01*
X138328571Y-29602857D01*
X138328571Y-29174285D01*
X138400000Y-29031428D01*
X138471428Y-28960000D01*
X138614285Y-28888571D01*
X138900000Y-28888571D01*
X139042857Y-28960000D01*
X140828571Y-28317142D02*
X139542857Y-30245714D01*
X141328571Y-28888571D02*
X141328571Y-30388571D01*
X141328571Y-28960000D02*
X141471428Y-28888571D01*
X141757142Y-28888571D01*
X141900000Y-28960000D01*
X141971428Y-29031428D01*
X142042857Y-29174285D01*
X142042857Y-29602857D01*
X141971428Y-29745714D01*
X141900000Y-29817142D01*
X141757142Y-29888571D01*
X141471428Y-29888571D01*
X141328571Y-29817142D01*
X143257142Y-29817142D02*
X143114285Y-29888571D01*
X142828571Y-29888571D01*
X142685714Y-29817142D01*
X142614285Y-29674285D01*
X142614285Y-29102857D01*
X142685714Y-28960000D01*
X142828571Y-28888571D01*
X143114285Y-28888571D01*
X143257142Y-28960000D01*
X143328571Y-29102857D01*
X143328571Y-29245714D01*
X142614285Y-29388571D01*
X143971428Y-29888571D02*
X143971428Y-28888571D01*
X143971428Y-29174285D02*
X144042857Y-29031428D01*
X144114285Y-28960000D01*
X144257142Y-28888571D01*
X144400000Y-28888571D01*
X144900000Y-29888571D02*
X144900000Y-28888571D01*
X144900000Y-29031428D02*
X144971428Y-28960000D01*
X145114285Y-28888571D01*
X145328571Y-28888571D01*
X145471428Y-28960000D01*
X145542857Y-29102857D01*
X145542857Y-29888571D01*
X145542857Y-29102857D02*
X145614285Y-28960000D01*
X145757142Y-28888571D01*
X145971428Y-28888571D01*
X146114285Y-28960000D01*
X146185714Y-29102857D01*
X146185714Y-29888571D01*
X147542857Y-29888571D02*
X147542857Y-29102857D01*
X147471428Y-28960000D01*
X147328571Y-28888571D01*
X147042857Y-28888571D01*
X146900000Y-28960000D01*
X147542857Y-29817142D02*
X147400000Y-29888571D01*
X147042857Y-29888571D01*
X146900000Y-29817142D01*
X146828571Y-29674285D01*
X146828571Y-29531428D01*
X146900000Y-29388571D01*
X147042857Y-29317142D01*
X147400000Y-29317142D01*
X147542857Y-29245714D01*
X148257142Y-29317142D02*
X149400000Y-29317142D01*
X150114285Y-28888571D02*
X150114285Y-30388571D01*
X150114285Y-28960000D02*
X150257142Y-28888571D01*
X150542857Y-28888571D01*
X150685714Y-28960000D01*
X150757142Y-29031428D01*
X150828571Y-29174285D01*
X150828571Y-29602857D01*
X150757142Y-29745714D01*
X150685714Y-29817142D01*
X150542857Y-29888571D01*
X150257142Y-29888571D01*
X150114285Y-29817142D01*
X151471428Y-29888571D02*
X151471428Y-28888571D01*
X151471428Y-29174285D02*
X151542857Y-29031428D01*
X151614285Y-28960000D01*
X151757142Y-28888571D01*
X151899999Y-28888571D01*
X152614285Y-29888571D02*
X152471428Y-29817142D01*
X152399999Y-29745714D01*
X152328571Y-29602857D01*
X152328571Y-29174285D01*
X152399999Y-29031428D01*
X152471428Y-28960000D01*
X152614285Y-28888571D01*
X152828571Y-28888571D01*
X152971428Y-28960000D01*
X153042857Y-29031428D01*
X153114285Y-29174285D01*
X153114285Y-29602857D01*
X153042857Y-29745714D01*
X152971428Y-29817142D01*
X152828571Y-29888571D01*
X152614285Y-29888571D01*
X153542857Y-28888571D02*
X154114285Y-28888571D01*
X153757142Y-28388571D02*
X153757142Y-29674285D01*
X153828571Y-29817142D01*
X153971428Y-29888571D01*
X154114285Y-29888571D01*
X154828571Y-29888571D02*
X154685714Y-29817142D01*
X154614285Y-29745714D01*
X154542857Y-29602857D01*
X154542857Y-29174285D01*
X154614285Y-29031428D01*
X154685714Y-28960000D01*
X154828571Y-28888571D01*
X155042857Y-28888571D01*
X155185714Y-28960000D01*
X155257142Y-29031428D01*
X155328571Y-29174285D01*
X155328571Y-29602857D01*
X155257142Y-29745714D01*
X155185714Y-29817142D01*
X155042857Y-29888571D01*
X154828571Y-29888571D01*
X155971428Y-29317142D02*
X157114285Y-29317142D01*
X157828571Y-29888571D02*
X157828571Y-28388571D01*
X157828571Y-28960000D02*
X157971428Y-28888571D01*
X158257142Y-28888571D01*
X158399999Y-28960000D01*
X158471428Y-29031428D01*
X158542857Y-29174285D01*
X158542857Y-29602857D01*
X158471428Y-29745714D01*
X158399999Y-29817142D01*
X158257142Y-29888571D01*
X157971428Y-29888571D01*
X157828571Y-29817142D01*
X159399999Y-29888571D02*
X159257142Y-29817142D01*
X159185714Y-29745714D01*
X159114285Y-29602857D01*
X159114285Y-29174285D01*
X159185714Y-29031428D01*
X159257142Y-28960000D01*
X159399999Y-28888571D01*
X159614285Y-28888571D01*
X159757142Y-28960000D01*
X159828571Y-29031428D01*
X159899999Y-29174285D01*
X159899999Y-29602857D01*
X159828571Y-29745714D01*
X159757142Y-29817142D01*
X159614285Y-29888571D01*
X159399999Y-29888571D01*
X161185714Y-29888571D02*
X161185714Y-29102857D01*
X161114285Y-28960000D01*
X160971428Y-28888571D01*
X160685714Y-28888571D01*
X160542857Y-28960000D01*
X161185714Y-29817142D02*
X161042857Y-29888571D01*
X160685714Y-29888571D01*
X160542857Y-29817142D01*
X160471428Y-29674285D01*
X160471428Y-29531428D01*
X160542857Y-29388571D01*
X160685714Y-29317142D01*
X161042857Y-29317142D01*
X161185714Y-29245714D01*
X161899999Y-29888571D02*
X161899999Y-28888571D01*
X161899999Y-29174285D02*
X161971428Y-29031428D01*
X162042857Y-28960000D01*
X162185714Y-28888571D01*
X162328571Y-28888571D01*
X163471428Y-29888571D02*
X163471428Y-28388571D01*
X163471428Y-29817142D02*
X163328571Y-29888571D01*
X163042857Y-29888571D01*
X162899999Y-29817142D01*
X162828571Y-29745714D01*
X162757142Y-29602857D01*
X162757142Y-29174285D01*
X162828571Y-29031428D01*
X162899999Y-28960000D01*
X163042857Y-28888571D01*
X163328571Y-28888571D01*
X163471428Y-28960000D01*
D10*
X174879047Y-55951428D02*
X175640952Y-55951428D01*
X49910952Y-88828571D02*
X49149047Y-88828571D01*
X173609047Y-81351428D02*
X174370952Y-81351428D01*
X173990000Y-81732380D02*
X173990000Y-80970476D01*
X174887142Y-62952380D02*
X175220476Y-63952380D01*
X175553809Y-62952380D01*
X175887142Y-63952380D02*
X175887142Y-62952380D01*
X175887142Y-63333333D02*
X175982380Y-63285714D01*
X176172857Y-63285714D01*
X176268095Y-63333333D01*
X176315714Y-63380952D01*
X176363333Y-63476190D01*
X176363333Y-63761904D01*
X176315714Y-63857142D01*
X176268095Y-63904761D01*
X176172857Y-63952380D01*
X175982380Y-63952380D01*
X175887142Y-63904761D01*
X177220476Y-63285714D02*
X177220476Y-63952380D01*
X176791904Y-63285714D02*
X176791904Y-63809523D01*
X176839523Y-63904761D01*
X176934761Y-63952380D01*
X177077619Y-63952380D01*
X177172857Y-63904761D01*
X177220476Y-63857142D01*
X177649047Y-63904761D02*
X177744285Y-63952380D01*
X177934761Y-63952380D01*
X178030000Y-63904761D01*
X178077619Y-63809523D01*
X178077619Y-63761904D01*
X178030000Y-63666666D01*
X177934761Y-63619047D01*
X177791904Y-63619047D01*
X177696666Y-63571428D01*
X177649047Y-63476190D01*
X177649047Y-63428571D01*
X177696666Y-63333333D01*
X177791904Y-63285714D01*
X177934761Y-63285714D01*
X178030000Y-63333333D01*
X182499047Y-31821428D02*
X183260952Y-31821428D01*
X63127142Y-40092380D02*
X63460476Y-41092380D01*
X63793809Y-40092380D01*
X64127142Y-41092380D02*
X64127142Y-40092380D01*
X64127142Y-40473333D02*
X64222380Y-40425714D01*
X64412857Y-40425714D01*
X64508095Y-40473333D01*
X64555714Y-40520952D01*
X64603333Y-40616190D01*
X64603333Y-40901904D01*
X64555714Y-40997142D01*
X64508095Y-41044761D01*
X64412857Y-41092380D01*
X64222380Y-41092380D01*
X64127142Y-41044761D01*
X65460476Y-40425714D02*
X65460476Y-41092380D01*
X65031904Y-40425714D02*
X65031904Y-40949523D01*
X65079523Y-41044761D01*
X65174761Y-41092380D01*
X65317619Y-41092380D01*
X65412857Y-41044761D01*
X65460476Y-40997142D01*
X65889047Y-41044761D02*
X65984285Y-41092380D01*
X66174761Y-41092380D01*
X66270000Y-41044761D01*
X66317619Y-40949523D01*
X66317619Y-40901904D01*
X66270000Y-40806666D01*
X66174761Y-40759047D01*
X66031904Y-40759047D01*
X65936666Y-40711428D01*
X65889047Y-40616190D01*
X65889047Y-40568571D01*
X65936666Y-40473333D01*
X66031904Y-40425714D01*
X66174761Y-40425714D01*
X66270000Y-40473333D01*
X65659047Y-81351428D02*
X66420952Y-81351428D01*
X66040000Y-81732380D02*
X66040000Y-80970476D01*
X49910952Y-77398571D02*
X49149047Y-77398571D01*
X49910952Y-43108571D02*
X49149047Y-43108571D01*
X173609047Y-35631428D02*
X174370952Y-35631428D01*
X173990000Y-36012380D02*
X173990000Y-35250476D01*
X49910952Y-54538571D02*
X49149047Y-54538571D01*
X174879047Y-101671428D02*
X175640952Y-101671428D01*
X51689047Y-43251428D02*
X52450952Y-43251428D01*
X52070000Y-43632380D02*
X52070000Y-42870476D01*
X173609047Y-78811428D02*
X174370952Y-78811428D01*
X182499047Y-54681428D02*
X183260952Y-54681428D01*
X185039047Y-43251428D02*
X185800952Y-43251428D01*
X185420000Y-43632380D02*
X185420000Y-42870476D01*
X182499047Y-88971428D02*
X183260952Y-88971428D01*
X51689047Y-88971428D02*
X52450952Y-88971428D01*
X52070000Y-89352380D02*
X52070000Y-88590476D01*
X173609047Y-33091428D02*
X174370952Y-33091428D01*
X65659047Y-35631428D02*
X66420952Y-35631428D01*
X66040000Y-36012380D02*
X66040000Y-35250476D01*
X49910952Y-31678571D02*
X49149047Y-31678571D01*
X51689047Y-77541428D02*
X52450952Y-77541428D01*
X52070000Y-77922380D02*
X52070000Y-77160476D01*
X182499047Y-43251428D02*
X183260952Y-43251428D01*
X174879047Y-58491428D02*
X175640952Y-58491428D01*
X175260000Y-58872380D02*
X175260000Y-58110476D01*
X174879047Y-104241428D02*
X175640952Y-104241428D01*
X175260000Y-104622380D02*
X175260000Y-103860476D01*
X51689047Y-31821428D02*
X52450952Y-31821428D01*
X52070000Y-32202380D02*
X52070000Y-31440476D01*
X185039047Y-66111428D02*
X185800952Y-66111428D01*
X185420000Y-66492380D02*
X185420000Y-65730476D01*
X65659047Y-78811428D02*
X66420952Y-78811428D01*
X185023033Y-54649400D02*
X185784938Y-54649400D01*
X185403986Y-55030352D02*
X185403986Y-54268448D01*
X63127142Y-85812380D02*
X63460476Y-86812380D01*
X63793809Y-85812380D01*
X64127142Y-86812380D02*
X64127142Y-85812380D01*
X64127142Y-86193333D02*
X64222380Y-86145714D01*
X64412857Y-86145714D01*
X64508095Y-86193333D01*
X64555714Y-86240952D01*
X64603333Y-86336190D01*
X64603333Y-86621904D01*
X64555714Y-86717142D01*
X64508095Y-86764761D01*
X64412857Y-86812380D01*
X64222380Y-86812380D01*
X64127142Y-86764761D01*
X65460476Y-86145714D02*
X65460476Y-86812380D01*
X65031904Y-86145714D02*
X65031904Y-86669523D01*
X65079523Y-86764761D01*
X65174761Y-86812380D01*
X65317619Y-86812380D01*
X65412857Y-86764761D01*
X65460476Y-86717142D01*
X65889047Y-86764761D02*
X65984285Y-86812380D01*
X66174761Y-86812380D01*
X66270000Y-86764761D01*
X66317619Y-86669523D01*
X66317619Y-86621904D01*
X66270000Y-86526666D01*
X66174761Y-86479047D01*
X66031904Y-86479047D01*
X65936666Y-86431428D01*
X65889047Y-86336190D01*
X65889047Y-86288571D01*
X65936666Y-86193333D01*
X66031904Y-86145714D01*
X66174761Y-86145714D01*
X66270000Y-86193333D01*
X185039047Y-31821428D02*
X185800952Y-31821428D01*
X185420000Y-32202380D02*
X185420000Y-31440476D01*
X182499047Y-66111428D02*
X183260952Y-66111428D01*
X185039047Y-77541428D02*
X185800952Y-77541428D01*
X185420000Y-77922380D02*
X185420000Y-77160476D01*
X49910952Y-65968571D02*
X49149047Y-65968571D01*
X66420952Y-32948571D02*
X65659047Y-32948571D01*
X182499047Y-77541428D02*
X183260952Y-77541428D01*
X185039047Y-88971428D02*
X185800952Y-88971428D01*
X185420000Y-89352380D02*
X185420000Y-88590476D01*
X51689047Y-66111428D02*
X52450952Y-66111428D01*
X52070000Y-66492380D02*
X52070000Y-65730476D01*
X51689047Y-54681428D02*
X52450952Y-54681428D01*
X52070000Y-55062380D02*
X52070000Y-54300476D01*
%TO.C,J23*%
X68242380Y-87169523D02*
X68956666Y-87169523D01*
X69099523Y-87217142D01*
X69194761Y-87312380D01*
X69242380Y-87455238D01*
X69242380Y-87550476D01*
X68337619Y-86740952D02*
X68290000Y-86693333D01*
X68242380Y-86598095D01*
X68242380Y-86360000D01*
X68290000Y-86264761D01*
X68337619Y-86217142D01*
X68432857Y-86169523D01*
X68528095Y-86169523D01*
X68670952Y-86217142D01*
X69242380Y-86788571D01*
X69242380Y-86169523D01*
X68242380Y-85836190D02*
X68242380Y-85217142D01*
X68623333Y-85550476D01*
X68623333Y-85407619D01*
X68670952Y-85312380D01*
X68718571Y-85264761D01*
X68813809Y-85217142D01*
X69051904Y-85217142D01*
X69147142Y-85264761D01*
X69194761Y-85312380D01*
X69242380Y-85407619D01*
X69242380Y-85693333D01*
X69194761Y-85788571D01*
X69147142Y-85836190D01*
%TO.C,+*%
X68861428Y-104520952D02*
X68861428Y-103759047D01*
X69242380Y-104140000D02*
X68480476Y-104140000D01*
%TO.C,J37*%
X68242380Y-82089523D02*
X68956666Y-82089523D01*
X69099523Y-82137142D01*
X69194761Y-82232380D01*
X69242380Y-82375238D01*
X69242380Y-82470476D01*
X68242380Y-81708571D02*
X68242380Y-81089523D01*
X68623333Y-81422857D01*
X68623333Y-81280000D01*
X68670952Y-81184761D01*
X68718571Y-81137142D01*
X68813809Y-81089523D01*
X69051904Y-81089523D01*
X69147142Y-81137142D01*
X69194761Y-81184761D01*
X69242380Y-81280000D01*
X69242380Y-81565714D01*
X69194761Y-81660952D01*
X69147142Y-81708571D01*
X68242380Y-80756190D02*
X68242380Y-80089523D01*
X69242380Y-80518095D01*
%TO.C,+*%
X68866428Y-58800952D02*
X68866428Y-58039047D01*
X69247380Y-58420000D02*
X68485476Y-58420000D01*
%TO.C,-*%
X68409047Y-55951428D02*
X69170952Y-55951428D01*
X68409047Y-101671428D02*
X69170952Y-101671428D01*
%TO.C,J36*%
X68247380Y-79549523D02*
X68961666Y-79549523D01*
X69104523Y-79597142D01*
X69199761Y-79692380D01*
X69247380Y-79835238D01*
X69247380Y-79930476D01*
X68247380Y-79168571D02*
X68247380Y-78549523D01*
X68628333Y-78882857D01*
X68628333Y-78740000D01*
X68675952Y-78644761D01*
X68723571Y-78597142D01*
X68818809Y-78549523D01*
X69056904Y-78549523D01*
X69152142Y-78597142D01*
X69199761Y-78644761D01*
X69247380Y-78740000D01*
X69247380Y-79025714D01*
X69199761Y-79120952D01*
X69152142Y-79168571D01*
X68247380Y-77692380D02*
X68247380Y-77882857D01*
X68295000Y-77978095D01*
X68342619Y-78025714D01*
X68485476Y-78120952D01*
X68675952Y-78168571D01*
X69056904Y-78168571D01*
X69152142Y-78120952D01*
X69199761Y-78073333D01*
X69247380Y-77978095D01*
X69247380Y-77787619D01*
X69199761Y-77692380D01*
X69152142Y-77644761D01*
X69056904Y-77597142D01*
X68818809Y-77597142D01*
X68723571Y-77644761D01*
X68675952Y-77692380D01*
X68628333Y-77787619D01*
X68628333Y-77978095D01*
X68675952Y-78073333D01*
X68723571Y-78120952D01*
X68818809Y-78168571D01*
D12*
%TO.C,J27*%
X72390000Y-97850000D02*
X72390000Y-95190000D01*
X171510000Y-97850000D02*
X171510000Y-95190000D01*
X71120000Y-97850000D02*
X69790000Y-97850000D01*
X69790000Y-97850000D02*
X69790000Y-96520000D01*
X72390000Y-97850000D02*
X171510000Y-97850000D01*
X72390000Y-95190000D02*
X171510000Y-95190000D01*
%TO.C,J2*%
X184150000Y-47050000D02*
X184150000Y-44390000D01*
X184150000Y-44390000D02*
X196910000Y-44390000D01*
X184150000Y-47050000D02*
X196910000Y-47050000D01*
X182880000Y-47050000D02*
X181550000Y-47050000D01*
X196910000Y-47050000D02*
X196910000Y-44390000D01*
X181550000Y-47050000D02*
X181550000Y-45720000D01*
%TO.C,J33*%
X71125000Y-36890000D02*
X69795000Y-36890000D01*
X72395000Y-34230000D02*
X171515000Y-34230000D01*
X72395000Y-36890000D02*
X72395000Y-34230000D01*
X171515000Y-36890000D02*
X171515000Y-34230000D01*
X69795000Y-36890000D02*
X69795000Y-35560000D01*
X72395000Y-36890000D02*
X171515000Y-36890000D01*
%TO.C,J7*%
X48200000Y-35620000D02*
X48200000Y-34290000D01*
X49530000Y-35620000D02*
X48200000Y-35620000D01*
X50800000Y-32960000D02*
X58480000Y-32960000D01*
X58480000Y-35620000D02*
X58480000Y-32960000D01*
X50800000Y-35620000D02*
X50800000Y-32960000D01*
X50800000Y-35620000D02*
X58480000Y-35620000D01*
%TO.C,J23*%
X171510000Y-87690000D02*
X171510000Y-85030000D01*
X72390000Y-87690000D02*
X72390000Y-85030000D01*
X72390000Y-85030000D02*
X171510000Y-85030000D01*
X71120000Y-87690000D02*
X69790000Y-87690000D01*
X72390000Y-87690000D02*
X171510000Y-87690000D01*
X69790000Y-87690000D02*
X69790000Y-86360000D01*
%TO.C,J15*%
X69790000Y-47050000D02*
X69790000Y-45720000D01*
X72390000Y-44390000D02*
X171510000Y-44390000D01*
X71120000Y-47050000D02*
X69790000Y-47050000D01*
X72390000Y-47050000D02*
X72390000Y-44390000D01*
X72390000Y-47050000D02*
X171510000Y-47050000D01*
X171510000Y-47050000D02*
X171510000Y-44390000D01*
%TO.C,+*%
X72390000Y-102810000D02*
X171510000Y-102810000D01*
X72390000Y-105470000D02*
X72390000Y-102810000D01*
X69790000Y-105470000D02*
X69790000Y-104140000D01*
X171510000Y-105470000D02*
X171510000Y-102810000D01*
X71120000Y-105470000D02*
X69790000Y-105470000D01*
X72390000Y-105470000D02*
X171510000Y-105470000D01*
%TO.C,J25*%
X69790000Y-92770000D02*
X69790000Y-91440000D01*
X171510000Y-92770000D02*
X171510000Y-90110000D01*
X72390000Y-90110000D02*
X171510000Y-90110000D01*
X71120000Y-92770000D02*
X69790000Y-92770000D01*
X72390000Y-92770000D02*
X171510000Y-92770000D01*
X72390000Y-92770000D02*
X72390000Y-90110000D01*
%TO.C,J12*%
X49530000Y-69910000D02*
X48200000Y-69910000D01*
X58480000Y-69910000D02*
X58480000Y-67250000D01*
X50800000Y-67250000D02*
X58480000Y-67250000D01*
X48200000Y-69910000D02*
X48200000Y-68580000D01*
X50800000Y-69910000D02*
X58480000Y-69910000D01*
X50800000Y-69910000D02*
X50800000Y-67250000D01*
%TO.C,J40*%
X196220000Y-96900000D02*
X198220000Y-96900000D01*
X202020000Y-106300000D02*
X202020000Y-96900000D01*
X200120000Y-96900000D02*
X202020000Y-96900000D01*
X196220000Y-106300000D02*
X198220000Y-106300000D01*
X200120000Y-106300000D02*
X202020000Y-106300000D01*
%TO.C,J31*%
X171390000Y-101600000D02*
X171390000Y-100270000D01*
X171390000Y-100270000D02*
X172720000Y-100270000D01*
X174050000Y-102870000D02*
X174050000Y-105470000D01*
X171390000Y-105470000D02*
X174050000Y-105470000D01*
X171390000Y-102870000D02*
X171390000Y-105470000D01*
X171390000Y-102870000D02*
X174050000Y-102870000D01*
%TO.C,J37*%
X72390000Y-82610000D02*
X72390000Y-79950000D01*
X71120000Y-82610000D02*
X69790000Y-82610000D01*
X72390000Y-79950000D02*
X171510000Y-79950000D01*
X69790000Y-82610000D02*
X69790000Y-81280000D01*
X72390000Y-82610000D02*
X171510000Y-82610000D01*
X171510000Y-82610000D02*
X171510000Y-79950000D01*
%TO.C,J32*%
X69795000Y-34350000D02*
X69795000Y-33020000D01*
X72395000Y-31690000D02*
X171515000Y-31690000D01*
X72395000Y-34350000D02*
X72395000Y-31690000D01*
X171515000Y-34350000D02*
X171515000Y-31690000D01*
X71125000Y-34350000D02*
X69795000Y-34350000D01*
X72395000Y-34350000D02*
X171515000Y-34350000D01*
%TO.C,J11*%
X50810000Y-92770000D02*
X50810000Y-90110000D01*
X49540000Y-92770000D02*
X48210000Y-92770000D01*
X50810000Y-90110000D02*
X58490000Y-90110000D01*
X58490000Y-92770000D02*
X58490000Y-90110000D01*
X50810000Y-92770000D02*
X58490000Y-92770000D01*
X48210000Y-92770000D02*
X48210000Y-91440000D01*
%TO.C,J1*%
X196910000Y-35620000D02*
X196910000Y-32960000D01*
X184150000Y-35620000D02*
X196910000Y-35620000D01*
X184150000Y-35620000D02*
X184150000Y-32960000D01*
X181550000Y-35620000D02*
X181550000Y-34290000D01*
X182880000Y-35620000D02*
X181550000Y-35620000D01*
X184150000Y-32960000D02*
X196910000Y-32960000D01*
%TO.C,J8*%
X48210000Y-47050000D02*
X48210000Y-45720000D01*
X58490000Y-47050000D02*
X58490000Y-44390000D01*
X49540000Y-47050000D02*
X48210000Y-47050000D01*
X50810000Y-47050000D02*
X50810000Y-44390000D01*
X50810000Y-44390000D02*
X58490000Y-44390000D01*
X50810000Y-47050000D02*
X58490000Y-47050000D01*
%TO.C,+*%
X69795000Y-59750000D02*
X69795000Y-58420000D01*
X171515000Y-59750000D02*
X171515000Y-57090000D01*
X72395000Y-57090000D02*
X171515000Y-57090000D01*
X71125000Y-59750000D02*
X69795000Y-59750000D01*
X72395000Y-59750000D02*
X171515000Y-59750000D01*
X72395000Y-59750000D02*
X72395000Y-57090000D01*
%TO.C,J24*%
X72390000Y-90230000D02*
X171510000Y-90230000D01*
X72390000Y-87570000D02*
X171510000Y-87570000D01*
X72390000Y-90230000D02*
X72390000Y-87570000D01*
X71120000Y-90230000D02*
X69790000Y-90230000D01*
X171510000Y-90230000D02*
X171510000Y-87570000D01*
X69790000Y-90230000D02*
X69790000Y-88900000D01*
%TO.C,-*%
X171510000Y-57210000D02*
X171510000Y-54550000D01*
X72390000Y-57210000D02*
X72390000Y-54550000D01*
X69790000Y-57210000D02*
X69790000Y-55880000D01*
X72390000Y-57210000D02*
X171510000Y-57210000D01*
X71120000Y-57210000D02*
X69790000Y-57210000D01*
X72390000Y-54550000D02*
X171510000Y-54550000D01*
%TO.C,J28*%
X67250000Y-31700000D02*
X68580000Y-31700000D01*
X67250000Y-34300000D02*
X69910000Y-34300000D01*
X69910000Y-34300000D02*
X69910000Y-41980000D01*
X67250000Y-33030000D02*
X67250000Y-31700000D01*
X67250000Y-41980000D02*
X69910000Y-41980000D01*
X67250000Y-34300000D02*
X67250000Y-41980000D01*
%TO.C,J16*%
X72390000Y-46930000D02*
X171510000Y-46930000D01*
X72390000Y-49590000D02*
X171510000Y-49590000D01*
X171510000Y-49590000D02*
X171510000Y-46930000D01*
X71120000Y-49590000D02*
X69790000Y-49590000D01*
X72390000Y-49590000D02*
X72390000Y-46930000D01*
X69790000Y-49590000D02*
X69790000Y-48260000D01*
%TO.C,J17*%
X71120000Y-52130000D02*
X69790000Y-52130000D01*
X171510000Y-52130000D02*
X171510000Y-49470000D01*
X69790000Y-52130000D02*
X69790000Y-50800000D01*
X72390000Y-52130000D02*
X72390000Y-49470000D01*
X72390000Y-49470000D02*
X171510000Y-49470000D01*
X72390000Y-52130000D02*
X171510000Y-52130000D01*
%TO.C,J43*%
X189170000Y-62230000D02*
X191830000Y-62230000D01*
X189170000Y-62230000D02*
X189170000Y-62290000D01*
X191830000Y-62230000D02*
X191830000Y-62290000D01*
X189170000Y-59630000D02*
X190500000Y-59630000D01*
X189170000Y-62290000D02*
X191830000Y-62290000D01*
X189170000Y-60960000D02*
X189170000Y-59630000D01*
%TO.C,J29*%
X171390000Y-54560000D02*
X172720000Y-54560000D01*
X174050000Y-57160000D02*
X174050000Y-64840000D01*
X171390000Y-64840000D02*
X174050000Y-64840000D01*
X171390000Y-57160000D02*
X174050000Y-57160000D01*
X171390000Y-55890000D02*
X171390000Y-54560000D01*
X171390000Y-57160000D02*
X171390000Y-64840000D01*
%TO.C,J26*%
X72390000Y-95310000D02*
X72390000Y-92650000D01*
X72390000Y-95310000D02*
X171510000Y-95310000D01*
X171510000Y-95310000D02*
X171510000Y-92650000D01*
X72390000Y-92650000D02*
X171510000Y-92650000D01*
X71120000Y-95310000D02*
X69790000Y-95310000D01*
X69790000Y-95310000D02*
X69790000Y-93980000D01*
%TO.C,J13*%
X71120000Y-41970000D02*
X69790000Y-41970000D01*
X72390000Y-39310000D02*
X171510000Y-39310000D01*
X72390000Y-41970000D02*
X171510000Y-41970000D01*
X72390000Y-41970000D02*
X72390000Y-39310000D01*
X171510000Y-41970000D02*
X171510000Y-39310000D01*
X69790000Y-41970000D02*
X69790000Y-40640000D01*
%TO.C,J10*%
X48210000Y-81340000D02*
X48210000Y-80010000D01*
X50810000Y-78680000D02*
X58490000Y-78680000D01*
X58490000Y-81340000D02*
X58490000Y-78680000D01*
X49540000Y-81340000D02*
X48210000Y-81340000D01*
X50810000Y-81340000D02*
X58490000Y-81340000D01*
X50810000Y-81340000D02*
X50810000Y-78680000D01*
%TO.C,J3*%
X184150000Y-58480000D02*
X196910000Y-58480000D01*
X182880000Y-58480000D02*
X181550000Y-58480000D01*
X184150000Y-55820000D02*
X196910000Y-55820000D01*
X196910000Y-58480000D02*
X196910000Y-55820000D01*
X181550000Y-58480000D02*
X181550000Y-57150000D01*
X184150000Y-58480000D02*
X184150000Y-55820000D01*
%TO.C,J46*%
X186630000Y-97790000D02*
X189290000Y-97790000D01*
X186630000Y-97850000D02*
X189290000Y-97850000D01*
X186630000Y-95190000D02*
X187960000Y-95190000D01*
X189290000Y-97790000D02*
X189290000Y-97850000D01*
X186630000Y-96520000D02*
X186630000Y-95190000D01*
X186630000Y-97790000D02*
X186630000Y-97850000D01*
%TO.C,J6*%
X196910000Y-92770000D02*
X196910000Y-90110000D01*
X184150000Y-90110000D02*
X196910000Y-90110000D01*
X184150000Y-92770000D02*
X196910000Y-92770000D01*
X181550000Y-92770000D02*
X181550000Y-91440000D01*
X184150000Y-92770000D02*
X184150000Y-90110000D01*
X182880000Y-92770000D02*
X181550000Y-92770000D01*
%TO.C,-*%
X69790000Y-102930000D02*
X69790000Y-101600000D01*
X71120000Y-102930000D02*
X69790000Y-102930000D01*
X171510000Y-102930000D02*
X171510000Y-100270000D01*
X72390000Y-102930000D02*
X171510000Y-102930000D01*
X72390000Y-102930000D02*
X72390000Y-100270000D01*
X72390000Y-100270000D02*
X171510000Y-100270000D01*
%TO.C,J45*%
X191830000Y-86360000D02*
X191830000Y-86420000D01*
X189170000Y-86360000D02*
X189170000Y-86420000D01*
X189170000Y-86360000D02*
X191830000Y-86360000D01*
X189170000Y-83760000D02*
X190500000Y-83760000D01*
X189170000Y-85090000D02*
X189170000Y-83760000D01*
X189170000Y-86420000D02*
X191830000Y-86420000D01*
%TO.C,J36*%
X69795000Y-80070000D02*
X69795000Y-78740000D01*
X71125000Y-80070000D02*
X69795000Y-80070000D01*
X72395000Y-80070000D02*
X72395000Y-77410000D01*
X171515000Y-80070000D02*
X171515000Y-77410000D01*
X72395000Y-77410000D02*
X171515000Y-77410000D01*
X72395000Y-80070000D02*
X171515000Y-80070000D01*
%TO.C,J9*%
X49530000Y-58480000D02*
X48200000Y-58480000D01*
X50800000Y-55820000D02*
X58480000Y-55820000D01*
X58480000Y-58480000D02*
X58480000Y-55820000D01*
X50800000Y-58480000D02*
X58480000Y-58480000D01*
X50800000Y-58480000D02*
X50800000Y-55820000D01*
X48200000Y-58480000D02*
X48200000Y-57150000D01*
%TO.C,J42*%
X189170000Y-50800000D02*
X189170000Y-49470000D01*
X189170000Y-52070000D02*
X189170000Y-52130000D01*
X189170000Y-52130000D02*
X191830000Y-52130000D01*
X191830000Y-52070000D02*
X191830000Y-52130000D01*
X189170000Y-52070000D02*
X191830000Y-52070000D01*
X189170000Y-49470000D02*
X190500000Y-49470000D01*
%TO.C,J5*%
X196910000Y-81340000D02*
X196910000Y-78680000D01*
X184150000Y-81340000D02*
X184150000Y-78680000D01*
X182880000Y-81340000D02*
X181550000Y-81340000D01*
X184150000Y-81340000D02*
X196910000Y-81340000D01*
X184150000Y-78680000D02*
X196910000Y-78680000D01*
X181550000Y-81340000D02*
X181550000Y-80010000D01*
%TO.C,J41*%
X189170000Y-40700000D02*
X191830000Y-40700000D01*
X189170000Y-38040000D02*
X190500000Y-38040000D01*
X189170000Y-39370000D02*
X189170000Y-38040000D01*
X189170000Y-40640000D02*
X191830000Y-40640000D01*
X191830000Y-40640000D02*
X191830000Y-40700000D01*
X189170000Y-40640000D02*
X189170000Y-40700000D01*
%TO.C,J21*%
X71120000Y-72450000D02*
X69790000Y-72450000D01*
X72390000Y-72450000D02*
X171510000Y-72450000D01*
X72390000Y-72450000D02*
X72390000Y-69790000D01*
X69790000Y-72450000D02*
X69790000Y-71120000D01*
X171510000Y-72450000D02*
X171510000Y-69790000D01*
X72390000Y-69790000D02*
X171510000Y-69790000D01*
%TO.C,J30*%
X67250000Y-80010000D02*
X69910000Y-80010000D01*
X67250000Y-77410000D02*
X68580000Y-77410000D01*
X67250000Y-78740000D02*
X67250000Y-77410000D01*
X67250000Y-87690000D02*
X69910000Y-87690000D01*
X67250000Y-80010000D02*
X67250000Y-87690000D01*
X69910000Y-80010000D02*
X69910000Y-87690000D01*
%TO.C,J20*%
X69790000Y-69910000D02*
X69790000Y-68580000D01*
X72390000Y-69910000D02*
X171510000Y-69910000D01*
X171510000Y-69910000D02*
X171510000Y-67250000D01*
X72390000Y-69910000D02*
X72390000Y-67250000D01*
X72390000Y-67250000D02*
X171510000Y-67250000D01*
X71120000Y-69910000D02*
X69790000Y-69910000D01*
%TO.C,J14*%
X69790000Y-44510000D02*
X69790000Y-43180000D01*
X72390000Y-41850000D02*
X171510000Y-41850000D01*
X72390000Y-44510000D02*
X72390000Y-41850000D01*
X72390000Y-44510000D02*
X171510000Y-44510000D01*
X71120000Y-44510000D02*
X69790000Y-44510000D01*
X171510000Y-44510000D02*
X171510000Y-41850000D01*
%TO.C,J4*%
X196910000Y-69910000D02*
X196910000Y-67250000D01*
X181550000Y-69910000D02*
X181550000Y-68580000D01*
X184150000Y-69910000D02*
X196910000Y-69910000D01*
X184150000Y-67250000D02*
X196910000Y-67250000D01*
X182880000Y-69910000D02*
X181550000Y-69910000D01*
X184150000Y-69910000D02*
X184150000Y-67250000D01*
%TO.C,J19*%
X72390000Y-67370000D02*
X171510000Y-67370000D01*
X72390000Y-64710000D02*
X171510000Y-64710000D01*
X171510000Y-67370000D02*
X171510000Y-64710000D01*
X72390000Y-67370000D02*
X72390000Y-64710000D01*
X71120000Y-67370000D02*
X69790000Y-67370000D01*
X69790000Y-67370000D02*
X69790000Y-66040000D01*
%TO.C,J44*%
X189170000Y-72330000D02*
X190500000Y-72330000D01*
X189170000Y-74990000D02*
X191830000Y-74990000D01*
X189170000Y-73660000D02*
X189170000Y-72330000D01*
X189170000Y-74930000D02*
X189170000Y-74990000D01*
X191830000Y-74930000D02*
X191830000Y-74990000D01*
X189170000Y-74930000D02*
X191830000Y-74930000D01*
%TO.C,J18*%
X71120000Y-64830000D02*
X69790000Y-64830000D01*
X69790000Y-64830000D02*
X69790000Y-63500000D01*
X171510000Y-64830000D02*
X171510000Y-62170000D01*
X72390000Y-62170000D02*
X171510000Y-62170000D01*
X72390000Y-64830000D02*
X171510000Y-64830000D01*
X72390000Y-64830000D02*
X72390000Y-62170000D01*
%TO.C,J22*%
X72390000Y-74990000D02*
X72390000Y-72330000D01*
X69790000Y-74990000D02*
X69790000Y-73660000D01*
X72390000Y-74990000D02*
X171510000Y-74990000D01*
X171510000Y-74990000D02*
X171510000Y-72330000D01*
X71120000Y-74990000D02*
X69790000Y-74990000D01*
X72390000Y-72330000D02*
X171510000Y-72330000D01*
%TD*%
M02*
