%TF.GenerationSoftware,KiCad,Pcbnew,(6.0.1)*%
%TF.CreationDate,2022-02-24T10:52:54+13:00*%
%TF.ProjectId,perma-proto-board,7065726d-612d-4707-926f-746f2d626f61,rev?*%
%TF.SameCoordinates,Original*%
%TF.FileFunction,Legend,Bot*%
%TF.FilePolarity,Positive*%
%FSLAX46Y46*%
G04 Gerber Fmt 4.6, Leading zero omitted, Abs format (unit mm)*
G04 Created by KiCad (PCBNEW (6.0.1)) date 2022-02-24 10:52:54*
%MOMM*%
%LPD*%
G01*
G04 APERTURE LIST*
%ADD10C,0.500000*%
%ADD11C,0.300000*%
G04 APERTURE END LIST*
D10*
X96520000Y-86360000D02*
X96520000Y-96520000D01*
X106680000Y-63500000D02*
X106680000Y-73660000D01*
X170180000Y-40640000D02*
X170180000Y-50800000D01*
X152400000Y-63500000D02*
X152400000Y-73660000D01*
X149801860Y-63412483D02*
X149801860Y-73572483D01*
X91440000Y-63500000D02*
X91440000Y-73660000D01*
X119380000Y-63500000D02*
X119380000Y-73660000D01*
D11*
X49530000Y-34925000D02*
X49530000Y-92075000D01*
D10*
X83820000Y-40640000D02*
X83820000Y-50800000D01*
X121920000Y-63500000D02*
X121920000Y-73660000D01*
X154940000Y-63500000D02*
X154940000Y-73660000D01*
X71120000Y-104140000D02*
X170180000Y-104140000D01*
X124401860Y-63412483D02*
X124401860Y-73572483D01*
X144780000Y-63500000D02*
X144780000Y-73660000D01*
X142240000Y-63500000D02*
X142240000Y-73660000D01*
X132080000Y-40640000D02*
X132080000Y-50800000D01*
X71120000Y-33020000D02*
X170180000Y-33020000D01*
X154940000Y-86360000D02*
X154940000Y-96520000D01*
X167640000Y-86360000D02*
X167640000Y-96520000D01*
X73601860Y-40552483D02*
X73601860Y-50712483D01*
X109220000Y-63500000D02*
X109220000Y-73660000D01*
X129540000Y-40640000D02*
X129540000Y-50800000D01*
X134620000Y-40640000D02*
X134620000Y-50800000D01*
X167640000Y-63500000D02*
X167640000Y-73660000D01*
X165100000Y-86360000D02*
X165100000Y-96520000D01*
X147320000Y-40640000D02*
X147320000Y-50800000D01*
X170180000Y-86360000D02*
X170180000Y-96520000D01*
X76200000Y-40640000D02*
X76200000Y-50800000D01*
D11*
X52070000Y-34925000D02*
X52070000Y-92075000D01*
D10*
X127000000Y-63500000D02*
X127000000Y-73660000D01*
X134620000Y-86360000D02*
X134620000Y-96520000D01*
X106680000Y-86360000D02*
X106680000Y-96520000D01*
X99001860Y-86272483D02*
X99001860Y-96432483D01*
X81280000Y-40640000D02*
X81280000Y-50800000D01*
X121920000Y-86360000D02*
X121920000Y-96520000D01*
X139700000Y-86360000D02*
X139700000Y-96520000D01*
X81280000Y-63500000D02*
X81280000Y-73660000D01*
X165100000Y-63500000D02*
X165100000Y-73660000D01*
X88900000Y-86360000D02*
X88900000Y-96520000D01*
X124401860Y-86272483D02*
X124401860Y-96432483D01*
X71120000Y-58420000D02*
X170180000Y-58420000D01*
X132080000Y-63500000D02*
X132080000Y-73660000D01*
X96520000Y-40640000D02*
X96520000Y-50800000D01*
X71120000Y-55880000D02*
X170180000Y-55880000D01*
X81280000Y-86360000D02*
X81280000Y-96520000D01*
X101600000Y-63500000D02*
X101600000Y-73660000D01*
X73601860Y-86272483D02*
X73601860Y-96432483D01*
X149801860Y-40552483D02*
X149801860Y-50712483D01*
X71120000Y-86360000D02*
X71120000Y-96520000D01*
X147320000Y-86360000D02*
X147320000Y-96520000D01*
X71120000Y-63500000D02*
X71120000Y-73660000D01*
X157480000Y-63500000D02*
X157480000Y-73660000D01*
X73601860Y-63412483D02*
X73601860Y-73572483D01*
X137101860Y-40552483D02*
X137101860Y-50712483D01*
X78740000Y-86360000D02*
X78740000Y-96520000D01*
X139700000Y-63500000D02*
X139700000Y-73660000D01*
X134620000Y-63500000D02*
X134620000Y-73660000D01*
X109220000Y-40640000D02*
X109220000Y-50800000D01*
X93980000Y-86360000D02*
X93980000Y-96520000D01*
X119380000Y-40640000D02*
X119380000Y-50800000D01*
D11*
X182775207Y-34924999D02*
X182775207Y-92074999D01*
D10*
X71120000Y-40640000D02*
X71120000Y-50800000D01*
X144780000Y-86360000D02*
X144780000Y-96520000D01*
X147320000Y-63500000D02*
X147320000Y-73660000D01*
X104140000Y-40640000D02*
X104140000Y-50800000D01*
X119380000Y-86360000D02*
X119380000Y-96520000D01*
X111701860Y-40552483D02*
X111701860Y-50712483D01*
D11*
X57150000Y-34925000D02*
X57150000Y-92075000D01*
D10*
X111701860Y-86272483D02*
X111701860Y-96432483D01*
X71120000Y-81280000D02*
X170180000Y-81280000D01*
X88900000Y-40640000D02*
X88900000Y-50800000D01*
X91440000Y-40640000D02*
X91440000Y-50800000D01*
X127000000Y-86360000D02*
X127000000Y-96520000D01*
X96520000Y-63500000D02*
X96520000Y-73660000D01*
X111701860Y-63412483D02*
X111701860Y-73572483D01*
X99001860Y-40552483D02*
X99001860Y-50712483D01*
X101600000Y-86360000D02*
X101600000Y-96520000D01*
X144780000Y-40640000D02*
X144780000Y-50800000D01*
X71120000Y-78740000D02*
X170180000Y-78740000D01*
X162501860Y-40552483D02*
X162501860Y-50712483D01*
X104140000Y-86360000D02*
X104140000Y-96520000D01*
X71120000Y-101600000D02*
X170180000Y-101600000D01*
X162501860Y-86272483D02*
X162501860Y-96432483D01*
X86301860Y-40552483D02*
X86301860Y-50712483D01*
X121920000Y-40640000D02*
X121920000Y-50800000D01*
D11*
X187960000Y-34925000D02*
X187960000Y-92075000D01*
D10*
X129540000Y-63500000D02*
X129540000Y-73660000D01*
X106680000Y-40640000D02*
X106680000Y-50800000D01*
X160020000Y-40640000D02*
X160020000Y-50800000D01*
X154940000Y-40640000D02*
X154940000Y-50800000D01*
X114300000Y-86360000D02*
X114300000Y-96520000D01*
X160020000Y-63500000D02*
X160020000Y-73660000D01*
X76200000Y-86360000D02*
X76200000Y-96520000D01*
X162501860Y-63412483D02*
X162501860Y-73572483D01*
X152400000Y-86360000D02*
X152400000Y-96520000D01*
X116840000Y-86360000D02*
X116840000Y-96520000D01*
X142240000Y-40640000D02*
X142240000Y-50800000D01*
X99001860Y-63412483D02*
X99001860Y-73572483D01*
X71120000Y-35560000D02*
X170180000Y-35560000D01*
X127000000Y-40640000D02*
X127000000Y-50800000D01*
D11*
X185420000Y-34925000D02*
X185420000Y-92075000D01*
D10*
X116840000Y-63500000D02*
X116840000Y-73660000D01*
X93980000Y-63500000D02*
X93980000Y-73660000D01*
X157480000Y-86360000D02*
X157480000Y-96520000D01*
X86301860Y-63412483D02*
X86301860Y-73572483D01*
X160020000Y-86360000D02*
X160020000Y-96520000D01*
X83820000Y-86360000D02*
X83820000Y-96520000D01*
X167640000Y-40640000D02*
X167640000Y-50800000D01*
X78740000Y-63500000D02*
X78740000Y-73660000D01*
D11*
X54610000Y-34925000D02*
X54610000Y-92075000D01*
X195580000Y-34290000D02*
X195580000Y-91440000D01*
D10*
X88900000Y-63500000D02*
X88900000Y-73660000D01*
X76200000Y-63500000D02*
X76200000Y-73660000D01*
X137101860Y-86272483D02*
X137101860Y-96432483D01*
X129540000Y-86360000D02*
X129540000Y-96520000D01*
X157480000Y-40640000D02*
X157480000Y-50800000D01*
X132080000Y-86360000D02*
X132080000Y-96520000D01*
X149801860Y-86272483D02*
X149801860Y-96432483D01*
X91440000Y-86360000D02*
X91440000Y-96520000D01*
X114300000Y-40640000D02*
X114300000Y-50800000D01*
X137101860Y-63412483D02*
X137101860Y-73572483D01*
X139700000Y-40640000D02*
X139700000Y-50800000D01*
D11*
X193040000Y-34925000D02*
X193040000Y-92075000D01*
D10*
X78740000Y-40640000D02*
X78740000Y-50800000D01*
X124401860Y-40552483D02*
X124401860Y-50712483D01*
X170180000Y-63500000D02*
X170180000Y-73660000D01*
X152400000Y-40640000D02*
X152400000Y-50800000D01*
X83820000Y-63500000D02*
X83820000Y-73660000D01*
X109220000Y-86360000D02*
X109220000Y-96520000D01*
X142240000Y-86360000D02*
X142240000Y-96520000D01*
X165100000Y-40640000D02*
X165100000Y-50800000D01*
X93980000Y-40640000D02*
X93980000Y-50800000D01*
X86301860Y-86272483D02*
X86301860Y-96432483D01*
X116840000Y-40640000D02*
X116840000Y-50800000D01*
X104140000Y-63500000D02*
X104140000Y-73660000D01*
X101600000Y-40640000D02*
X101600000Y-50800000D01*
X114300000Y-63500000D02*
X114300000Y-73660000D01*
M02*
